<svg width="36" height="10" viewBox="0 0 36 10" fill="none" xmlns="http://www.w3.org/2000/svg">
	<path d="M2.2983 9.19602C1.96023 9.19602 1.65057 9.11364 1.36932 8.94886C1.08807 8.78125 0.863636 8.55682 0.696023 8.27557C0.53125 7.99432 0.448864 7.68466 0.448864 7.34659C0.448864 7.00568 0.53125 6.6946 0.696023 6.41335C0.863636 6.1321 1.08807 5.90767 1.36932 5.74006C1.65057 5.57244 1.96023 5.48864 2.2983 5.48864H3.28693V3.77557H2.2983C1.96023 3.77557 1.65057 3.69318 1.36932 3.52841C1.08807 3.3608 0.863636 3.13778 0.696023 2.85938C0.53125 2.57812 0.448864 2.26705 0.448864 1.92614C0.448864 1.58523 0.53125 1.27557 0.696023 0.997159C0.863636 0.715909 1.08807 0.492898 1.36932 0.328125C1.65057 0.160511 1.96023 0.076704 2.2983 0.076704C2.6392 0.076704 2.95028 0.160511 3.23153 0.328125C3.51278 0.492898 3.73722 0.715909 3.90483 0.997159C4.07244 1.27557 4.15625 1.58523 4.15625 1.92614V2.90625H5.86932V1.92614C5.86932 1.58523 5.9517 1.27557 6.11648 0.997159C6.28409 0.715909 6.5071 0.492898 6.78551 0.328125C7.06676 0.160511 7.37784 0.076704 7.71875 0.076704C8.05966 0.076704 8.36932 0.160511 8.64773 0.328125C8.92898 0.492898 9.15199 0.715909 9.31676 0.997159C9.48438 1.27557 9.56818 1.58523 9.56818 1.92614C9.56818 2.26705 9.48438 2.57812 9.31676 2.85938C9.15199 3.13778 8.92898 3.3608 8.64773 3.52841C8.36932 3.69318 8.05966 3.77557 7.71875 3.77557H6.73864V5.48864H7.71875C8.05966 5.48864 8.36932 5.57244 8.64773 5.74006C8.92898 5.90767 9.15199 6.1321 9.31676 6.41335C9.48438 6.6946 9.56818 7.00568 9.56818 7.34659C9.56818 7.68466 9.48438 7.99432 9.31676 8.27557C9.15199 8.55682 8.92898 8.78125 8.64773 8.94886C8.36932 9.11364 8.05966 9.19602 7.71875 9.19602C7.37784 9.19602 7.06676 9.11364 6.78551 8.94886C6.5071 8.78125 6.28409 8.55682 6.11648 8.27557C5.9517 7.99432 5.86932 7.68466 5.86932 7.34659V6.35795H4.15625V7.34659C4.15625 7.68466 4.07244 7.99432 3.90483 8.27557C3.73722 8.55682 3.51278 8.78125 3.23153 8.94886C2.95028 9.11364 2.6392 9.19602 2.2983 9.19602ZM2.2983 8.3267C2.48011 8.3267 2.64489 8.28267 2.79261 8.1946C2.94318 8.10653 3.0625 7.98864 3.15057 7.84091C3.24148 7.69034 3.28693 7.52557 3.28693 7.34659V6.35795H2.2983C2.11932 6.35795 1.95455 6.40341 1.80398 6.49432C1.65625 6.58239 1.53835 6.7017 1.45028 6.85227C1.36222 7 1.31818 7.16477 1.31818 7.34659C1.31818 7.52557 1.36222 7.69034 1.45028 7.84091C1.53835 7.98864 1.65625 8.10653 1.80398 8.1946C1.95455 8.28267 2.11932 8.3267 2.2983 8.3267ZM2.2983 2.90625H3.28693V1.92614C3.28693 1.74432 3.24148 1.57955 3.15057 1.43182C3.0625 1.28409 2.94318 1.16619 2.79261 1.07812C2.64489 0.990057 2.48011 0.946022 2.2983 0.946022C2.11932 0.946022 1.95455 0.990057 1.80398 1.07812C1.65625 1.16619 1.53835 1.28409 1.45028 1.43182C1.36222 1.57955 1.31818 1.74432 1.31818 1.92614C1.31818 2.10795 1.36222 2.27415 1.45028 2.42472C1.53835 2.57244 1.65625 2.69034 1.80398 2.77841C1.95455 2.86364 2.11932 2.90625 2.2983 2.90625ZM6.73864 2.90625H7.71875C7.90057 2.90625 8.06534 2.86364 8.21307 2.77841C8.3608 2.69034 8.47869 2.57244 8.56676 2.42472C8.65483 2.27415 8.69886 2.10795 8.69886 1.92614C8.69886 1.74432 8.65483 1.57955 8.56676 1.43182C8.47869 1.28409 8.3608 1.16619 8.21307 1.07812C8.06534 0.990057 7.90057 0.946022 7.71875 0.946022C7.53693 0.946022 7.37074 0.990057 7.22017 1.07812C7.07244 1.16619 6.95455 1.28409 6.86648 1.43182C6.78125 1.57955 6.73864 1.74432 6.73864 1.92614V2.90625ZM7.71875 8.3267C7.90057 8.3267 8.06534 8.28267 8.21307 8.1946C8.3608 8.10653 8.47869 7.98864 8.56676 7.84091C8.65483 7.69034 8.69886 7.52557 8.69886 7.34659C8.69886 7.16477 8.65483 7 8.56676 6.85227C8.47869 6.7017 8.3608 6.58239 8.21307 6.49432C8.06534 6.40341 7.90057 6.35795 7.71875 6.35795H6.73864V7.34659C6.73864 7.52557 6.78125 7.69034 6.86648 7.84091C6.95455 7.98864 7.07244 8.10653 7.22017 8.1946C7.37074 8.28267 7.53693 8.3267 7.71875 8.3267ZM4.15625 5.48864H5.86932V3.77557H4.15625V5.48864ZM12.0685 9V0.272727H13.1254V4.60227H13.2276L17.1481 0.272727H18.5288L14.864 4.21023L18.5288 9H17.2504L14.2163 4.94318L13.1254 6.17045V9H12.0685ZM23.9908 8.45455L23.3345 7.80682L26.0362 5.10511H19.0391V4.16761H26.0362L23.3345 1.47443L23.9908 0.818182L27.8089 4.63636L23.9908 8.45455ZM34.8178 2.45455C34.7667 2.02273 34.5593 1.6875 34.1957 1.44886C33.832 1.21023 33.386 1.09091 32.8576 1.09091C32.4712 1.09091 32.1332 1.15341 31.8434 1.27841C31.5565 1.40341 31.332 1.57528 31.1701 1.79403C31.011 2.01278 30.9315 2.26136 30.9315 2.53977C30.9315 2.77273 30.9869 2.97301 31.0977 3.14062C31.2113 3.3054 31.3562 3.44318 31.5323 3.55398C31.7085 3.66193 31.8931 3.75142 32.0863 3.82244C32.2795 3.89062 32.457 3.94602 32.619 3.98864L33.5053 4.22727C33.7326 4.28693 33.9854 4.36932 34.2638 4.47443C34.5451 4.57955 34.8136 4.72301 35.0692 4.90483C35.3278 5.08381 35.5408 5.31392 35.7085 5.59517C35.8761 5.87642 35.9599 6.22159 35.9599 6.63068C35.9599 7.10227 35.8363 7.52841 35.5891 7.90909C35.3448 8.28977 34.9869 8.59233 34.5153 8.81676C34.0465 9.04119 33.4769 9.15341 32.8065 9.15341C32.1815 9.15341 31.6403 9.05256 31.1829 8.85085C30.7283 8.64915 30.3704 8.3679 30.109 8.0071C29.8505 7.64631 29.7042 7.22727 29.6701 6.75H30.761C30.7894 7.07955 30.9002 7.35227 31.0934 7.56818C31.2894 7.78125 31.5366 7.94034 31.8349 8.04545C32.136 8.14773 32.4599 8.19886 32.8065 8.19886C33.2099 8.19886 33.5721 8.13352 33.8931 8.00284C34.2141 7.86932 34.4684 7.68466 34.6559 7.44886C34.8434 7.21023 34.9371 6.93182 34.9371 6.61364C34.9371 6.32386 34.8562 6.08807 34.6942 5.90625C34.5323 5.72443 34.3192 5.5767 34.055 5.46307C33.7908 5.34943 33.5053 5.25 33.1985 5.16477L32.1246 4.85795C31.4428 4.66193 30.9031 4.3821 30.5053 4.01847C30.1076 3.65483 29.9087 3.17898 29.9087 2.59091C29.9087 2.10227 30.0408 1.67614 30.305 1.3125C30.5721 0.946023 30.93 0.661932 31.3789 0.460227C31.8306 0.255682 32.3349 0.153409 32.8917 0.153409C33.4542 0.153409 33.9542 0.254261 34.3917 0.455966C34.8292 0.654829 35.1758 0.927556 35.4315 1.27415C35.69 1.62074 35.8263 2.0142 35.8406 2.45455H34.8178Z" fill="#667085" />
</svg>
