<svg width="16" height="12" viewBox="0 0 16 12" fill="none" xmlns="http://www.w3.org/2000/svg">
	<path d="M2.2983 10.196C1.96023 10.196 1.65057 10.1136 1.36932 9.94886C1.08807 9.78125 0.863636 9.55682 0.696023 9.27557C0.53125 8.99432 0.448864 8.68466 0.448864 8.34659C0.448864 8.00568 0.53125 7.6946 0.696023 7.41335C0.863636 7.1321 1.08807 6.90767 1.36932 6.74006C1.65057 6.57244 1.96023 6.48864 2.2983 6.48864H3.28693V4.77557H2.2983C1.96023 4.77557 1.65057 4.69318 1.36932 4.52841C1.08807 4.3608 0.863636 4.13778 0.696023 3.85938C0.53125 3.57812 0.448864 3.26705 0.448864 2.92614C0.448864 2.58523 0.53125 2.27557 0.696023 1.99716C0.863636 1.71591 1.08807 1.4929 1.36932 1.32812C1.65057 1.16051 1.96023 1.0767 2.2983 1.0767C2.6392 1.0767 2.95028 1.16051 3.23153 1.32812C3.51278 1.4929 3.73722 1.71591 3.90483 1.99716C4.07244 2.27557 4.15625 2.58523 4.15625 2.92614V3.90625H5.86932V2.92614C5.86932 2.58523 5.9517 2.27557 6.11648 1.99716C6.28409 1.71591 6.5071 1.4929 6.78551 1.32812C7.06676 1.16051 7.37784 1.0767 7.71875 1.0767C8.05966 1.0767 8.36932 1.16051 8.64773 1.32812C8.92898 1.4929 9.15199 1.71591 9.31676 1.99716C9.48438 2.27557 9.56818 2.58523 9.56818 2.92614C9.56818 3.26705 9.48438 3.57812 9.31676 3.85938C9.15199 4.13778 8.92898 4.3608 8.64773 4.52841C8.36932 4.69318 8.05966 4.77557 7.71875 4.77557H6.73864V6.48864H7.71875C8.05966 6.48864 8.36932 6.57244 8.64773 6.74006C8.92898 6.90767 9.15199 7.1321 9.31676 7.41335C9.48438 7.6946 9.56818 8.00568 9.56818 8.34659C9.56818 8.68466 9.48438 8.99432 9.31676 9.27557C9.15199 9.55682 8.92898 9.78125 8.64773 9.94886C8.36932 10.1136 8.05966 10.196 7.71875 10.196C7.37784 10.196 7.06676 10.1136 6.78551 9.94886C6.5071 9.78125 6.28409 9.55682 6.11648 9.27557C5.9517 8.99432 5.86932 8.68466 5.86932 8.34659V7.35795H4.15625V8.34659C4.15625 8.68466 4.07244 8.99432 3.90483 9.27557C3.73722 9.55682 3.51278 9.78125 3.23153 9.94886C2.95028 10.1136 2.6392 10.196 2.2983 10.196ZM2.2983 9.3267C2.48011 9.3267 2.64489 9.28267 2.79261 9.1946C2.94318 9.10653 3.0625 8.98864 3.15057 8.84091C3.24148 8.69034 3.28693 8.52557 3.28693 8.34659V7.35795H2.2983C2.11932 7.35795 1.95455 7.40341 1.80398 7.49432C1.65625 7.58239 1.53835 7.7017 1.45028 7.85227C1.36222 8 1.31818 8.16477 1.31818 8.34659C1.31818 8.52557 1.36222 8.69034 1.45028 8.84091C1.53835 8.98864 1.65625 9.10653 1.80398 9.1946C1.95455 9.28267 2.11932 9.3267 2.2983 9.3267ZM2.2983 3.90625H3.28693V2.92614C3.28693 2.74432 3.24148 2.57955 3.15057 2.43182C3.0625 2.28409 2.94318 2.16619 2.79261 2.07812C2.64489 1.99006 2.48011 1.94602 2.2983 1.94602C2.11932 1.94602 1.95455 1.99006 1.80398 2.07812C1.65625 2.16619 1.53835 2.28409 1.45028 2.43182C1.36222 2.57955 1.31818 2.74432 1.31818 2.92614C1.31818 3.10795 1.36222 3.27415 1.45028 3.42472C1.53835 3.57244 1.65625 3.69034 1.80398 3.77841C1.95455 3.86364 2.11932 3.90625 2.2983 3.90625ZM6.73864 3.90625H7.71875C7.90057 3.90625 8.06534 3.86364 8.21307 3.77841C8.3608 3.69034 8.47869 3.57244 8.56676 3.42472C8.65483 3.27415 8.69886 3.10795 8.69886 2.92614C8.69886 2.74432 8.65483 2.57955 8.56676 2.43182C8.47869 2.28409 8.3608 2.16619 8.21307 2.07812C8.06534 1.99006 7.90057 1.94602 7.71875 1.94602C7.53693 1.94602 7.37074 1.99006 7.22017 2.07812C7.07244 2.16619 6.95455 2.28409 6.86648 2.43182C6.78125 2.57955 6.73864 2.74432 6.73864 2.92614V3.90625ZM7.71875 9.3267C7.90057 9.3267 8.06534 9.28267 8.21307 9.1946C8.3608 9.10653 8.47869 8.98864 8.56676 8.84091C8.65483 8.69034 8.69886 8.52557 8.69886 8.34659C8.69886 8.16477 8.65483 8 8.56676 7.85227C8.47869 7.7017 8.3608 7.58239 8.21307 7.49432C8.06534 7.40341 7.90057 7.35795 7.71875 7.35795H6.73864V8.34659C6.73864 8.52557 6.78125 8.69034 6.86648 8.84091C6.95455 8.98864 7.07244 9.10653 7.22017 9.1946C7.37074 9.28267 7.53693 9.3267 7.71875 9.3267ZM4.15625 6.48864H5.86932V4.77557H4.15625V6.48864ZM15.0174 0.863636L12.2049 11.3125H11.2844L14.0969 0.863636H15.0174Z" fill="#667085" />
</svg>
