<svg width="18" height="18" viewBox="0 0 18 18" fill="none" xmlns="http://www.w3.org/2000/svg">
	<path d="M16.8301 10.9039C17.1486 10.9039 17.4068 11.1663 17.4068 11.4889V15.5993C17.4018 16.1592 17.3007 16.6022 17.0733 16.9315C16.7992 17.3293 16.3145 17.5098 15.6132 17.5474L2.32201 17.5458C1.7821 17.5073 1.34583 17.2934 1.0625 16.8964C0.810103 16.5428 0.689752 16.1024 0.691423 15.5942V11.4881C0.691423 11.1655 0.949676 10.9031 1.2681 10.9031C1.5857 10.9031 1.84311 11.1655 1.84311 11.4881V15.5942C1.84311 15.8726 1.89744 16.0723 1.99522 16.2094C2.06292 16.3046 2.18244 16.3631 2.36296 16.3774L15.5823 16.3782C15.9333 16.359 16.1064 16.2946 16.1298 16.2612C16.2 16.1584 16.2518 15.9327 16.2551 15.5926V11.4881C16.2551 11.1655 16.5125 10.9031 16.831 10.9031L16.8301 10.9039ZM9.04076 0.832031C9.35835 0.832031 9.61744 1.09363 9.61744 1.41707L9.6166 10.5011L12.1757 7.92772C12.229 7.87368 12.2926 7.83083 12.3627 7.80169C12.4328 7.77254 12.508 7.75769 12.5839 7.758C12.6598 7.75831 12.7348 7.77378 12.8047 7.8035C12.8745 7.83322 12.9377 7.87659 12.9906 7.93106C13.0985 8.04196 13.1586 8.19074 13.1579 8.34545C13.1573 8.50016 13.096 8.64845 12.9873 8.75848L9.34665 12.4191C9.29343 12.473 9.23002 12.5157 9.16012 12.5447C9.09022 12.5738 9.01523 12.5887 8.93952 12.5884C8.86382 12.5882 8.78892 12.5729 8.7192 12.5434C8.64948 12.5139 8.58633 12.4708 8.53345 12.4166L4.94298 8.75597C4.83489 8.64529 4.77451 8.49663 4.77483 8.34192C4.77514 8.18721 4.83611 8.0388 4.94465 7.92856C4.99785 7.87441 5.06132 7.83143 5.13134 7.80214C5.20137 7.77285 5.27654 7.75785 5.35244 7.758C5.42835 7.75816 5.50345 7.77347 5.57336 7.80305C5.64326 7.83262 5.70656 7.87586 5.75953 7.93023L8.46408 10.6891V1.41623C8.46408 1.09363 8.72317 0.832031 9.04076 0.832031Z" fill="currentColor" />
</svg>
