<svg width="15" height="15" viewBox="0 0 15 15" fill="none" xmlns="http://www.w3.org/2000/svg">
	<path fill-rule="evenodd" clip-rule="evenodd" d="M5.67429 9.57376C5.59336 9.49286 5.48362 9.44742 5.3692 9.44742C5.25477 9.44742 5.14503 9.49286 5.06411 9.57376L1.52906 13.1088V10.7199C1.52906 10.6054 1.4836 10.4957 1.40267 10.4148C1.32175 10.3338 1.21199 10.2884 1.09754 10.2884C0.983093 10.2884 0.873333 10.3338 0.792406 10.4148C0.71148 10.4957 0.666016 10.6054 0.666016 10.7199V14.1505C0.666016 14.265 0.71148 14.3747 0.792406 14.4556C0.873333 14.5366 0.983093 14.582 1.09754 14.582H4.52816C4.64261 14.582 4.75237 14.5366 4.83329 14.4556C4.91422 14.3747 4.95968 14.265 4.95968 14.1505C4.95968 14.0361 4.91422 13.9263 4.83329 13.8454C4.75237 13.7644 4.64261 13.719 4.52816 13.719H2.13924L5.67429 10.1839C5.75518 10.103 5.80063 9.99327 5.80063 9.87885C5.80063 9.76442 5.75518 9.65468 5.67429 9.57376ZM9.42337 9.57376C9.50429 9.49286 9.61403 9.44742 9.72846 9.44742C9.84288 9.44742 9.95262 9.49286 10.0335 9.57376L13.5686 13.1088V10.7199C13.5686 10.6054 13.6141 10.4957 13.695 10.4148C13.7759 10.3338 13.8857 10.2884 14.0001 10.2884C14.1146 10.2884 14.2243 10.3338 14.3052 10.4148C14.3862 10.4957 14.4316 10.6054 14.4316 10.7199V14.1505C14.4316 14.265 14.3862 14.3747 14.3052 14.4556C14.2243 14.5366 14.1146 14.582 14.0001 14.582H10.5695C10.4551 14.582 10.3453 14.5366 10.2644 14.4556C10.1834 14.3747 10.138 14.265 10.138 14.1505C10.138 14.0361 10.1834 13.9263 10.2644 13.8454C10.3453 13.7644 10.4551 13.719 10.5695 13.719H12.9584L9.42337 10.1839C9.34247 10.103 9.29703 9.99327 9.29703 9.87885C9.29703 9.76442 9.34247 9.65468 9.42337 9.57376ZM9.42337 5.82468C9.50429 5.90558 9.61403 5.95102 9.72846 5.95102C9.84288 5.95102 9.95262 5.90558 10.0335 5.82468L13.5686 2.28963V4.67855C13.5686 4.793 13.6141 4.90276 13.695 4.98368C13.7759 5.06461 13.8857 5.11007 14.0001 5.11007C14.1146 5.11007 14.2243 5.06461 14.3052 4.98368C14.3862 4.90276 14.4316 4.793 14.4316 4.67855V1.24793C14.4316 1.13348 14.3862 1.02372 14.3052 0.942797C14.2243 0.86187 14.1146 0.816406 14.0001 0.816406H10.5695C10.4551 0.816406 10.3453 0.86187 10.2644 0.942797C10.1834 1.02372 10.138 1.13348 10.138 1.24793C10.138 1.36238 10.1834 1.47214 10.2644 1.55306C10.3453 1.63399 10.4551 1.67945 10.5695 1.67945H12.9584L9.42337 5.2145C9.34247 5.29542 9.29703 5.40516 9.29703 5.51959C9.29703 5.63401 9.34247 5.74375 9.42337 5.82468ZM5.67429 5.82468C5.59336 5.90558 5.48362 5.95102 5.3692 5.95102C5.25477 5.95102 5.14503 5.90558 5.06411 5.82468L1.52906 2.28963V4.67855C1.52906 4.793 1.4836 4.90276 1.40267 4.98368C1.32175 5.06461 1.21199 5.11007 1.09754 5.11007C0.983093 5.11007 0.873333 5.06461 0.792406 4.98368C0.71148 4.90276 0.666016 4.793 0.666016 4.67855V1.24793C0.666016 1.13348 0.71148 1.02372 0.792406 0.942797C0.873333 0.86187 0.983093 0.816406 1.09754 0.816406H4.52816C4.64261 0.816406 4.75237 0.86187 4.83329 0.942797C4.91422 1.02372 4.95968 1.13348 4.95968 1.24793C4.95968 1.36238 4.91422 1.47214 4.83329 1.55306C4.75237 1.63399 4.64261 1.67945 4.52816 1.67945H2.13924L5.67429 5.2145C5.75518 5.29542 5.80063 5.40516 5.80063 5.51959C5.80063 5.63401 5.75518 5.74375 5.67429 5.82468Z" fill="currentColor" />
</svg>
