<svg width="16" height="16" viewBox="0 0 16 16" fill="none" xmlns="http://www.w3.org/2000/svg">
	<g clip-path="url(#clip0_290_43957)">
		<path d="M7.99998 1.33398C4.31998 1.33398 1.33331 4.32065 1.33331 8.00065C1.33331 11.6807 4.31998 14.6673 7.99998 14.6673C11.68 14.6673 14.6666 11.6807 14.6666 8.00065C14.6666 4.32065 11.68 1.33398 7.99998 1.33398ZM7.99998 11.334C7.63331 11.334 7.33331 11.034 7.33331 10.6673V8.00065C7.33331 7.63398 7.63331 7.33398 7.99998 7.33398C8.36665 7.33398 8.66665 7.63398 8.66665 8.00065V10.6673C8.66665 11.034 8.36665 11.334 7.99998 11.334ZM8.66665 6.00065H7.33331V4.66732H8.66665V6.00065Z" fill="currentColor" />
	</g>
	<defs>
		<clipPath id="clip0_290_43957">
			<rect width="16" height="16" fill="white" />
		</clipPath>
	</defs>
</svg>
