<svg width="24" height="25" viewBox="0 0 24 25" fill="none" xmlns="http://www.w3.org/2000/svg">
	<path fill-rule="evenodd" clip-rule="evenodd" d="M2.96792e-07 2.42111C2.96792e-07 1.88933 0.21125 1.37932 0.587278 1.0033C0.963305 0.627268 1.47331 0.416018 2.00509 0.416018H21.9927C22.2563 0.415588 22.5173 0.467141 22.7609 0.567727C23.0045 0.668313 23.2258 0.815956 23.4123 1.0022C23.5987 1.18845 23.7466 1.40964 23.8475 1.65312C23.9483 1.8966 24.0001 2.15757 24 2.42111V22.4087C24.0003 22.6723 23.9486 22.9334 23.8479 23.177C23.7472 23.4206 23.5994 23.6419 23.4131 23.8284C23.2268 24.0148 23.0055 24.1627 22.762 24.2635C22.5184 24.3643 22.2574 24.4162 21.9938 24.416H2.00509C1.74169 24.416 1.48086 24.3641 1.23752 24.2633C0.994184 24.1624 0.773096 24.0147 0.586892 23.8284C0.400688 23.642 0.253017 23.4209 0.152316 23.1775C0.0516145 22.9341 -0.000143013 22.6732 2.96792e-07 22.4098V2.42111ZM9.49964 9.56656H12.7495V11.1986C13.2185 10.2604 14.4185 9.41602 16.2218 9.41602C19.6789 9.41602 20.4982 11.2847 20.4982 14.7135V21.0647H16.9996V15.4946C16.9996 13.5418 16.5305 12.44 15.3393 12.44C13.6865 12.44 12.9993 13.628 12.9993 15.4946V21.0647H9.49964V9.56656ZM3.49964 20.9153H6.99927V9.41602H3.49964V20.9142V20.9153ZM7.5 5.66547C7.5066 5.96512 7.45328 6.26306 7.34317 6.54182C7.23306 6.82057 7.06838 7.07453 6.8588 7.28878C6.64921 7.50303 6.39894 7.67326 6.12268 7.78948C5.84641 7.9057 5.54972 7.96556 5.25 7.96556C4.95028 7.96556 4.65359 7.9057 4.37732 7.78948C4.10106 7.67326 3.85079 7.50303 3.6412 7.28878C3.43162 7.07453 3.26694 6.82057 3.15683 6.54182C3.04672 6.26306 2.9934 5.96512 3 5.66547C3.01295 5.07731 3.25569 4.51761 3.67624 4.10622C4.09678 3.69483 4.6617 3.46447 5.25 3.46447C5.8383 3.46447 6.40322 3.69483 6.82376 4.10622C7.24431 4.51761 7.48705 5.07731 7.5 5.66547Z" fill="#A5AEB4" />
</svg>
