<svg width="17" height="18" viewBox="0 0 17 18" fill="none" xmlns="http://www.w3.org/2000/svg">
	<path d="M9.81578 0.832031C9.93784 0.832035 10.0568 0.872153 10.1554 0.946606C10.254 1.02106 10.3273 1.12601 10.3646 1.24633L10.9988 3.28681C11.2652 3.42172 11.52 3.57336 11.7633 3.74409L13.7881 3.29278C13.9075 3.26638 14.0319 3.27991 14.1433 3.33141C14.2548 3.3829 14.3476 3.46971 14.4084 3.57933L16.0066 6.44363C16.0676 6.55318 16.0935 6.67997 16.0804 6.80572C16.0673 6.93147 16.0161 7.04967 15.9339 7.14329L14.5445 8.73125C14.5647 9.03575 14.5647 9.34133 14.5445 9.64582L15.9339 11.2362C16.0161 11.3298 16.0673 11.448 16.0804 11.5737C16.0935 11.6995 16.0676 11.8263 16.0066 11.9358L14.4084 14.8013C14.3475 14.9107 14.2546 14.9973 14.1431 15.0486C14.0316 15.0998 13.9073 15.1132 13.7881 15.0867L11.7633 14.6354C11.5212 14.8049 11.2652 14.9577 11 15.0927L10.3646 17.1331C10.3273 17.2535 10.254 17.3584 10.1554 17.4329C10.0568 17.5073 9.93784 17.5474 9.81578 17.5474H6.61949C6.49743 17.5474 6.37852 17.5073 6.27988 17.4329C6.18125 17.3584 6.10798 17.2535 6.07063 17.1331L5.4376 15.0939C5.17195 14.9593 4.91573 14.8057 4.67081 14.6342L2.64718 15.0867C2.5278 15.1131 2.40341 15.0996 2.29192 15.0481C2.18044 14.9966 2.08762 14.9098 2.02683 14.8001L0.428686 11.9358C0.367659 11.8263 0.341811 11.6995 0.354866 11.5737C0.367922 11.448 0.419208 11.3298 0.501329 11.2362L1.89077 9.64582C1.87064 9.34212 1.87064 9.03734 1.89077 8.73364L0.501329 7.14329C0.419208 7.04967 0.367922 6.93147 0.354866 6.80572C0.341811 6.67997 0.367659 6.55318 0.428686 6.44363L2.02683 3.57813C2.08779 3.46874 2.18068 3.38217 2.29215 3.3309C2.40362 3.27962 2.52792 3.26628 2.64718 3.29278L4.67081 3.74529C4.91526 3.57455 5.17124 3.42053 5.4376 3.28561L6.07178 1.24633C6.10901 1.12639 6.18193 1.02173 6.2801 0.947308C6.37828 0.87289 6.49667 0.832539 6.61833 0.832031H9.81463H9.81578ZM9.39376 2.02599H7.04151L6.38657 4.13571L5.94494 4.35898C5.72784 4.46899 5.51826 4.59425 5.31768 4.73388L4.90949 5.02043L2.81553 4.5524L1.6394 6.66332L3.07497 8.30859L3.04038 8.81483C3.02381 9.06447 3.02381 9.31499 3.04038 9.56464L3.07497 10.0709L1.6371 11.7161L2.81438 13.8271L4.90834 13.3602L5.31652 13.6456C5.51711 13.7852 5.72669 13.9105 5.94379 14.0205L6.38542 14.2438L7.04151 16.3535H9.39607L10.0533 14.2426L10.4938 14.0205C10.7106 13.9107 10.9199 13.7855 11.1199 13.6456L11.5269 13.3602L13.622 13.8271L14.7982 11.7161L13.3615 10.0709L13.396 9.56464C13.4127 9.3146 13.4127 9.06367 13.396 8.81364L13.3615 8.3074L14.7993 6.66332L13.622 4.5524L11.5269 5.01805L11.1199 4.73388C10.9199 4.59397 10.7107 4.4687 10.4938 4.35898L10.0533 4.1369L9.39491 2.02599H9.39376ZM8.21763 5.60786C9.13507 5.60786 10.0149 5.98524 10.6637 6.65697C11.3124 7.3287 11.6768 8.23976 11.6768 9.18973C11.6768 10.1397 11.3124 11.0508 10.6637 11.7225C10.0149 12.3942 9.13507 12.7716 8.21763 12.7716C7.3002 12.7716 6.42034 12.3942 5.77162 11.7225C5.12289 11.0508 4.75844 10.1397 4.75844 9.18973C4.75844 8.23976 5.12289 7.3287 5.77162 6.65697C6.42034 5.98524 7.3002 5.60786 8.21763 5.60786ZM8.21763 6.80182C7.60601 6.80182 7.01944 7.0534 6.58696 7.50122C6.15447 7.94904 5.91151 8.55642 5.91151 9.18973C5.91151 9.82305 6.15447 10.4304 6.58696 10.8782C7.01944 11.3261 7.60601 11.5776 8.21763 11.5776C8.82926 11.5776 9.41583 11.3261 9.84831 10.8782C10.2808 10.4304 10.5238 9.82305 10.5238 9.18973C10.5238 8.55642 10.2808 7.94904 9.84831 7.50122C9.41583 7.0534 8.82926 6.80182 8.21763 6.80182Z" fill="currentColor" />
</svg>
