<svg width="24" height="25" viewBox="0 0 24 25" fill="none" xmlns="http://www.w3.org/2000/svg">
	<path d="M23.04 0.416016H0.96C0.429 0.416016 0 0.845016 0 1.37602V23.456C0 23.987 0.429 24.416 0.96 24.416H23.04C23.571 24.416 24 23.987 24 23.456V1.37602C24 0.845016 23.571 0.416016 23.04 0.416016ZM18.459 9.10702C18.468 9.24802 18.468 9.39502 18.468 9.53902C18.468 13.943 15.114 19.016 8.985 19.016C7.095 19.016 5.343 18.467 3.867 17.522C4.137 17.552 4.395 17.564 4.671 17.564C6.231 17.564 7.665 17.036 8.808 16.142C7.344 16.112 6.114 15.152 5.694 13.832C6.207 13.907 6.669 13.907 7.197 13.772C6.44318 13.6189 5.76562 13.2095 5.27945 12.6134C4.79327 12.0173 4.52846 11.2712 4.53 10.502V10.46C4.971 10.709 5.49 10.862 6.033 10.883C5.57653 10.5788 5.20217 10.1666 4.94313 9.6831C4.68409 9.19956 4.54837 8.65957 4.548 8.11102C4.548 7.49002 4.71 6.92302 5.001 6.43102C5.83771 7.46102 6.88179 8.30344 8.06539 8.90351C9.249 9.50358 10.5456 9.84788 11.871 9.91402C11.4 7.64902 13.092 5.81602 15.126 5.81602C16.086 5.81602 16.95 6.21802 17.559 6.86602C18.312 6.72502 19.032 6.44302 19.674 6.06502C19.425 6.83602 18.903 7.48702 18.21 7.89802C18.882 7.82602 19.53 7.64002 20.13 7.37902C19.677 8.04502 19.11 8.63602 18.459 9.10702Z" fill="#A5AEB4" />
</svg>
