<svg width="26" height="18" viewBox="0 0 26 18" fill="none" xmlns="http://www.w3.org/2000/svg">
	<g clip-path="url(#clip0_737_66356)">
		<path d="M25.4647 2.81649C25.1648 1.71531 24.2867 0.847066 23.1731 0.550593C21.1385 0 13.0001 0 13.0001 0C13.0001 0 4.86163 0 2.82703 0.529416C1.73477 0.825889 0.835259 1.71531 0.535422 2.81649C0 4.82827 0 9.00007 0 9.00007C0 9.00007 0 13.193 0.535422 15.1837C0.835259 16.2848 1.71335 17.1531 2.82703 17.4496C4.88305 18.0001 13.0001 18.0001 13.0001 18.0001C13.0001 18.0001 21.1385 18.0001 23.1731 17.4707C24.2867 17.1743 25.1648 16.306 25.4647 15.2048C26.0001 13.193 26.0001 9.02125 26.0001 9.02125C26.0001 9.02125 26.0215 4.82827 25.4647 2.81649V2.81649Z" fill="#BCC2C7" />
		<path d="M17.1764 9.00063L10.4087 5.14648V12.8548L17.1764 9.00063Z" fill="white" />
	</g>
	<defs>
		<clipPath id="clip0_737_66356">
			<rect width="26" height="18" fill="white" />
		</clipPath>
	</defs>
</svg>
