<svg viewBox="0 0 60 45" fill="none" xmlns="http://www.w3.org/2000/svg">
	<g clip-path="url(#clip0_2714_17158)">
		<path fill-rule="evenodd" clip-rule="evenodd" d="M-3.75 0H63.75V45H-3.75V0Z" fill="#199D00" />
		<path fill-rule="evenodd" clip-rule="evenodd" d="M13.257 12.7527C13.1866 13.8074 13.0812 15.6531 13.9864 15.8464C15.0675 15.9519 14.4698 14.0183 14.8654 13.6668C14.9357 13.491 15.0675 13.491 15.0763 13.7107V15.3543C15.0763 15.8816 15.4279 16.0398 15.6915 16.1453C15.9728 16.1277 16.1661 16.1453 16.2716 16.4089L16.4122 19.2478C16.4122 19.2478 17.0626 19.4412 17.0978 17.657C17.1241 16.6023 16.8868 15.7322 17.0275 15.53C17.0275 15.3279 17.2911 15.3191 17.4669 15.4158C17.7482 15.6091 17.8712 15.8552 18.3107 15.7673C18.9786 15.574 19.3829 15.2488 19.3917 14.739C19.3785 14.2381 19.2743 13.7437 19.0841 13.28C19.1193 13.1922 18.9611 12.9548 18.9962 12.867C19.1105 13.0603 19.295 13.0427 19.3302 12.867C19.2159 12.4978 19.0402 12.1375 18.7589 11.9881C18.5216 11.7771 18.17 11.8123 18.0558 12.2517C17.9855 12.7527 18.2316 13.3416 18.5919 13.8338C18.671 14.0183 18.7765 14.3347 18.7325 14.616C18.5392 14.7302 18.3458 14.6775 18.1788 14.5105C18.1788 14.5105 17.6515 14.115 17.6515 14.0183C17.7921 13.1218 17.6779 13.0164 17.5988 12.7615C17.546 12.4187 17.379 12.3045 17.2472 12.0759C17.1154 11.9353 16.9396 11.9353 16.8517 12.0759C16.6144 12.4802 16.7286 13.3504 16.8956 13.7459C17.0187 14.1062 17.2032 14.3347 17.1154 14.3347C17.045 14.5369 16.8956 14.4841 16.7814 14.2468C16.6527 13.7474 16.5907 13.2332 16.5968 12.7175C16.5529 12.3132 16.5001 11.4519 16.2277 11.2234C16.0695 11.0125 15.8322 11.1179 15.7443 11.3113C15.7211 11.7039 15.7299 12.0978 15.7706 12.489C15.9464 13.1394 16.0079 13.7195 16.0958 14.3787C16.1222 15.2664 15.5861 14.7654 15.6124 14.3172C15.7277 13.7536 15.7187 13.1718 15.5861 12.6121C15.4982 12.3836 15.4015 12.3308 15.1818 12.366C15.0148 12.366 14.5841 12.8318 14.4611 13.6228C14.4611 13.6228 14.3556 14.0271 14.3116 14.3875C14.2501 14.7918 13.9864 15.0906 13.7931 14.3347C13.6349 13.781 13.5294 12.4363 13.2657 12.7527H13.257Z" fill="white" />
		<path fill-rule="evenodd" clip-rule="evenodd" d="M16.2012 17.0684L13.3887 18.4219C13.415 17.7803 14.7158 16.6289 15.6123 16.6201C16.1836 16.6289 16.043 16.8398 16.1924 17.0684H16.2012Z" fill="white" />
		<path fill-rule="evenodd" clip-rule="evenodd" d="M15.7001 17.9472C14.2235 21.7705 19.1718 22.3066 19.7255 18.1054C19.7782 17.9297 19.9891 17.7627 20.0243 18.0439C19.91 21.8496 16.1923 22.1045 15.5595 20.9092C15.4106 20.4979 15.3362 20.0633 15.3397 19.6259C15.2518 18.8789 14.8563 19.1689 14.7948 19.9072C14.7333 20.3203 14.7509 20.4345 14.7509 20.8301C14.9442 23.8359 19.7343 22.5439 20.5165 20.0654C20.9296 18.6943 20.4462 17.6836 20.6659 17.6836C21.1405 18.1933 21.8085 17.7539 21.9579 17.5781C22.0194 17.4902 22.1776 17.4287 22.2831 17.5429C22.6522 17.8066 23.3026 17.6836 23.4432 17.2177C23.5223 16.7519 23.5839 16.2773 23.6014 15.7939C23.2938 15.8818 23.0741 15.9433 23.0477 16.0752L22.9862 16.4795C22.9598 16.6113 22.705 16.6113 22.6874 16.4443C22.5731 15.917 22.0985 15.8554 21.8085 16.664C21.6239 16.8222 21.2723 16.8574 21.2372 16.6201C21.2811 16.0752 21.0614 16.0049 20.622 16.2597L20.2001 13.0781C20.3759 13.0781 20.5516 13.2099 20.7186 12.999C20.5429 12.4277 20.1473 11.2676 19.9276 11.1797C19.8309 11.0566 19.743 11.1357 19.6024 11.1709C19.3739 11.2412 19.163 11.4345 19.2333 11.8213C19.497 13.4736 19.6727 14.7304 19.9452 16.3916C19.9891 16.5761 19.8309 16.831 19.62 16.8047C19.2684 16.5674 19.1805 16.084 18.5653 16.1015C18.1259 16.1015 17.6337 16.5849 17.5721 17.042C17.493 17.4111 17.4667 17.8066 17.5721 18.123C17.8798 18.4922 18.2489 18.457 18.5741 18.3779C18.8378 18.2636 19.0575 18 19.1542 18.0615C19.2157 18.1406 19.163 19.0195 17.8973 19.6875C17.1327 20.039 16.5175 20.1093 16.1923 19.4853C15.9901 19.0898 16.2098 17.6045 15.7001 17.9472Z" fill="white" />
		<path fill-rule="evenodd" clip-rule="evenodd" d="M22.0019 14.0625C22.2919 13.957 23.6982 12.3398 23.6982 12.3398L23.4873 12.164C23.4082 12.1025 23.4169 12.0322 23.4873 11.9707C23.8388 11.7597 23.7246 11.3203 23.5488 11.1093C23.4294 11.0512 23.2982 11.0217 23.1654 11.0232C23.0327 11.0247 22.9021 11.0572 22.7841 11.1181C22.538 11.3554 22.4853 11.7334 22.6787 11.9619C22.8632 12.0498 23.0478 12.2431 22.9248 12.3486C22.3447 12.9638 20.7714 14.0273 20.956 14.0625C20.9912 14.1152 21.9667 14.1152 21.9931 14.0625H22.0019ZM13.4765 19.7753C12.9492 20.6191 12.9052 21.8759 13.1953 22.2539C13.3535 22.4296 13.6083 22.5087 13.7929 22.4472C14.1269 22.3066 14.2763 21.6298 14.1972 21.3925C14.083 21.2167 13.9951 21.1904 13.8808 21.331C13.6523 21.8056 13.5556 21.4804 13.5292 21.2167C13.5041 20.7702 13.5276 20.3222 13.5996 19.8808C13.6611 19.5117 13.5996 19.6171 13.4765 19.7753ZM36.0732 18.4306C35.5634 17.3232 34.8515 16.2333 34.6318 15.8203C33.9469 14.7375 33.2197 13.682 32.4521 12.6562C31.9072 12.0058 33.3486 12.9287 32.2763 11.6279L31.4941 10.9687C31.3183 10.8457 30.8964 10.6171 30.8261 10.9863C30.791 11.3203 30.8085 11.496 30.8613 11.7685C30.9052 11.9443 31.1689 12.2519 31.3007 12.4277C33.1026 14.8143 34.6852 17.3588 36.0293 20.0302C36.2578 19.916 36.205 18.6152 36.0732 18.4306Z" fill="white" />
		<path fill-rule="evenodd" clip-rule="evenodd" d="M33.8321 22.1045C33.7266 22.2187 34.0782 22.7021 34.5352 22.7021C35.2911 22.6142 35.959 22.1924 36.5743 21.0674C36.8243 20.6931 36.9837 20.2658 37.0401 19.8193C37.1145 17.6857 36.9435 15.5506 36.5303 13.456C36.5039 13.2803 36.5303 13.0693 36.5479 13.0166C36.6006 12.9551 36.7676 13.0166 36.8555 12.8672C36.9873 12.7353 36.5039 11.6367 36.2403 11.2236C36.1524 11.0303 36.1084 10.9072 35.9502 11.2412C35.7593 11.6097 35.6684 12.0219 35.6866 12.4365C36.0469 14.9414 36.1612 17.1299 36.3897 19.6347C36.4161 19.8808 36.3809 20.2324 36.2139 20.373C35.5507 21.1114 34.7391 21.7014 33.8321 22.1045ZM44.0713 22.0957C43.5264 22.4121 43.5264 22.7724 43.9659 22.7812C44.7217 22.6933 45.6182 22.6318 46.2334 21.7002C46.4507 21.2614 46.5763 20.7829 46.6026 20.2939C46.7132 18.1932 46.5746 16.0867 46.1895 14.0185C46.1719 13.8428 46.0928 13.4297 46.1192 13.3769C46.1719 13.2539 46.418 13.3857 46.5059 13.2451C46.6289 13.1133 45.8643 12.1289 45.5918 11.707C45.5039 11.5137 45.4688 11.3906 45.3018 11.7246C45.1248 12.0965 45.0694 12.5147 45.1436 12.9199C45.5479 15.6445 45.8467 17.6836 45.9082 20.0918C45.8731 20.3203 45.8643 20.4433 45.7588 20.7334C45.5215 21.0322 45.2578 21.4189 45.0118 21.6035C44.7657 21.7793 44.2383 21.9551 44.0713 22.0957Z" fill="white" />
		<path fill-rule="evenodd" clip-rule="evenodd" d="M44.4757 19.661C44.4757 19.0194 44.4845 18.4745 44.4669 17.9911C44.4612 17.5817 44.3715 17.1778 44.2032 16.8046C44.045 16.4442 44.1417 16.1542 44.0626 15.7675C43.9923 15.3807 44.0099 14.8007 43.9044 14.3524C43.8692 14.1766 43.7813 13.6054 43.8077 13.5438C43.8517 13.4208 44.0186 13.5438 44.1065 13.4032C44.2296 13.2714 43.6671 11.8212 43.3858 11.4081C43.2891 11.2235 43.0958 11.285 42.8761 11.5839C42.6563 11.786 42.7354 12.2343 42.8233 12.6649C43.3595 15.5038 43.7725 18.079 43.6847 20.7772C43.6495 21.0057 44.4757 20.0917 44.4757 19.661ZM40.4591 16.1454C40.1163 16.1278 39.4044 15.4686 39.1934 15.0907C39.1589 14.9983 39.1442 14.8997 39.1503 14.8013C39.1563 14.7029 39.183 14.6069 39.2286 14.5194C39.3604 14.4315 39.5538 14.3436 39.7032 14.4315C39.7032 14.4315 39.8526 14.6425 39.8263 14.6688C40.002 14.7567 40.0899 14.7128 40.1075 14.6337C40.1163 14.5018 40.0548 14.4227 40.0548 14.2821C40.1339 13.8778 40.5821 13.8163 40.7579 14.0712C40.8809 14.2294 40.9337 14.5546 40.9425 14.7743C40.9425 14.8886 40.7667 14.7567 40.6524 14.7743C40.5558 14.8095 40.5294 14.9325 40.5206 15.038C40.503 15.328 40.4679 15.7938 40.4591 16.1366V16.1454ZM34.1485 20.3641C34.2364 19.5028 34.1134 17.9647 34.1046 17.455C34.0576 16.144 33.9491 14.8359 33.7794 13.535C33.6739 12.7968 34.0782 13.6141 34.0255 13.1835C33.8936 12.454 33.4893 11.953 33.0059 11.2938C32.8565 11.0741 32.8565 11.0302 32.6192 11.3466C32.3556 11.9354 32.5841 12.3485 32.6544 12.8143C32.9972 14.3261 33.1993 15.7147 33.296 17.0946C33.3972 18.528 33.4089 19.9664 33.3311 21.4013C33.5948 21.41 33.9991 20.9882 34.1485 20.3641Z" fill="white" />
		<path fill-rule="evenodd" clip-rule="evenodd" d="M45.6445 18.9845C45.0381 17.9649 44.1328 16.8751 43.8867 16.462C43.0717 15.3239 42.2157 14.2157 41.3203 13.1397C40.5732 12.3487 41.6718 13.0079 41.1797 12.3927C40.7666 11.9444 40.6523 11.795 40.292 11.5226C40.1162 11.4083 40.0107 11.1886 39.9404 11.5665C39.9124 11.8939 39.9065 12.2227 39.9228 12.5509C39.9228 12.7003 40.081 12.9903 40.2216 13.1661C42.041 15.4073 44.0361 17.6925 45.6357 20.5665C45.8642 20.4522 45.7851 19.1602 45.6357 18.9845H45.6445Z" fill="white" />
		<path fill-rule="evenodd" clip-rule="evenodd" d="M18.2754 17.1121C18.2314 17.1912 18.1347 17.2879 18.1699 17.3846C18.2314 17.4725 18.2929 17.4989 18.3984 17.4989C18.4951 17.4989 18.6357 17.5252 18.6621 17.4725C18.7148 17.411 18.75 17.2967 18.7148 17.1825C18.6094 16.9188 18.3281 17.0242 18.2754 17.1121Z" fill="#1BA400" />
		<path fill-rule="evenodd" clip-rule="evenodd" d="M38.6309 31.8602C39.4395 31.8954 39.9668 31.9042 40.6787 31.9833L41.5225 31.8954C42.4541 31.8075 42.4893 33.2225 42.4893 33.2225C42.4893 34.0575 42.1641 34.1014 41.751 34.1893C41.5137 34.2245 41.3994 34.0487 41.2676 33.8729C41.0688 33.9366 40.8571 33.9487 40.6523 33.9081C40.3096 33.8905 39.9756 33.8905 39.6416 33.8641C39.29 33.8378 39.0967 33.9081 38.7363 33.8729C38.666 33.9872 38.5605 34.1454 38.3496 34.1014C38.1738 34.0751 37.9541 33.5741 38.0156 33.1786C38.1475 32.8973 38.1035 32.994 38.1035 32.871C34.7988 32.7831 31.4678 32.6337 28.2334 32.6776C25.7021 32.6864 23.2061 32.7919 20.7012 32.8973C19.3652 32.8798 18.3457 32.6688 17.6426 31.6405C17.7129 31.6405 21.0527 31.8251 22.0283 31.7636C23.8301 31.746 25.4824 31.5966 27.3193 31.5438C30.9404 31.6054 34.5352 31.6054 38.1562 31.8602C37.8047 31.6229 37.8047 31.0692 38.332 30.9286C38.376 30.8934 38.4023 31.2011 38.4814 31.1923C38.9121 31.1659 38.7188 31.746 38.6309 31.8602ZM24.0762 11.8915C23.5312 13.4559 24.3926 15.1786 24.9902 15.0116C25.4297 15.1874 25.6934 14.3612 25.8691 13.4647C26.001 13.2098 26.0889 13.1835 26.1504 13.3153C26.1328 14.5106 26.2383 14.7831 26.5459 15.1434C27.2314 15.6708 27.8027 15.2138 27.8467 15.1698L28.374 14.6337C28.4971 14.5018 28.6553 14.5018 28.8223 14.6073C28.9893 14.7567 28.9629 15.0116 29.3145 15.1874C29.6133 15.3104 30.2373 15.2225 30.3867 14.9677C30.5801 14.6249 30.6328 14.5106 30.7207 14.3876C30.8613 14.203 31.0986 14.2821 31.0986 14.3436C31.0723 14.4491 30.9316 14.5458 31.0283 14.7391C31.2041 14.8622 31.2393 14.7831 31.3359 14.7567C31.6875 14.5809 31.9512 13.8251 31.9512 13.8251C31.96 13.5438 31.8018 13.5614 31.6963 13.6317L31.4238 13.8163C31.248 13.8427 30.9229 13.9569 30.7559 13.702C30.5889 13.4032 30.5889 12.9725 30.4658 12.6649C30.4658 12.6473 30.2373 12.1815 30.4482 12.1552C30.5537 12.1727 30.7734 12.2343 30.8086 12.0497C30.9141 11.8651 30.5801 11.3466 30.3428 11.0829C30.1406 10.8632 29.8594 10.8368 29.5869 11.0653C29.3936 11.2411 29.4199 11.4345 29.3848 11.619C29.3514 11.7513 29.35 11.8896 29.3805 12.0225C29.4111 12.1555 29.4728 12.2792 29.5605 12.3837C29.7539 12.7528 30.0967 13.2362 29.9824 13.9218C29.9824 13.9218 29.7803 14.2382 29.4287 14.1942C29.2793 14.1679 29.042 14.1063 28.9189 13.1571C28.8223 12.454 28.9365 11.452 28.6377 10.9862C28.5234 10.6962 28.4443 10.4237 28.1807 10.9071C28.1104 11.1005 27.8027 11.3905 28.0225 11.9794C28.2304 12.51 28.2911 13.087 28.1982 13.6493C28.0664 13.8427 28.04 13.9042 27.873 14.0888C27.6445 14.3524 27.3896 14.2821 27.1963 14.1854C27.0205 14.0712 26.8799 14.0096 26.792 13.6141C26.8096 12.9989 26.8447 11.9882 26.7305 11.7772C26.5635 11.4432 26.291 11.5663 26.1768 11.6718C25.6539 12.2526 25.3038 12.968 25.166 13.7372C25.0078 14.247 24.8408 14.0975 24.7266 13.8954C24.4453 13.6317 24.4189 11.5487 24.0762 11.8915Z" fill="white" />
		<path fill-rule="evenodd" clip-rule="evenodd" d="M25.7286 15.3018C25.9835 15.1261 25.8692 15.003 26.2384 15.3722C26.7149 16.2152 26.9915 17.1564 27.047 18.1231C27.0294 18.3516 27.1876 18.4923 27.2667 18.4395C27.3019 17.9122 28.5939 17.1739 29.7804 17.0684C29.9562 17.0245 29.8683 16.6817 29.8946 16.5059C29.8243 15.8468 30.2638 15.2491 30.879 15.2052C31.7228 15.3282 32.004 15.7765 32.0216 16.4532C31.9249 17.7716 30.5538 17.9913 29.7892 18.0968C29.6749 18.1407 29.6222 18.1934 29.7892 18.255L33.006 18.2725L33.173 18.3604C33.1905 18.4483 33.1202 18.378 32.9972 18.589C32.8202 18.8998 32.7095 19.244 32.672 19.5997C31.714 19.9161 30.7208 20.0391 29.7189 20.171C29.3673 20.3468 29.1915 20.5841 29.2618 20.8477C29.3849 21.1378 30.1583 21.4366 30.1583 21.4454C30.3077 21.5333 30.4747 21.753 30.1144 22.2013C28.5499 22.1309 27.3282 21.463 26.9064 20.5225C26.7833 20.4259 26.6427 20.5225 26.5548 20.6456C25.9396 21.4366 25.3419 22.1397 24.296 22.5265C23.6808 22.6847 23.0392 22.4298 22.7403 22.0255C22.5382 21.7882 22.547 21.5333 22.4767 21.4806C22.1339 21.63 19.2335 22.8604 19.6026 22.2804C20.3058 21.5333 21.5362 20.9708 22.6085 20.2325C22.6876 19.9776 22.8282 19.1339 23.2501 18.8614C23.2765 18.8614 23.1886 19.3536 23.1974 19.5645C23.1974 19.7403 23.1798 19.8018 23.2149 19.7579C23.294 19.714 24.5948 18.6856 24.7091 18.3692C24.8321 18.1934 24.7355 17.7364 24.7355 17.7188C24.4894 17.086 24.1466 17.0333 24.0235 16.7169C23.9093 16.3038 23.962 15.8292 24.1993 15.6886C24.4103 15.504 24.6564 15.5216 24.8937 15.7325C25.1573 15.9698 25.3858 16.4356 25.4562 16.7784C25.4122 16.9102 25.1046 16.6905 25.0167 16.752C25.1859 16.9464 25.2984 17.1836 25.3419 17.4376C25.5177 18.1583 25.4649 18.4395 25.2892 18.9054C24.7091 20.127 23.9708 20.4874 23.3204 20.9444C23.3028 20.9444 23.294 21.252 23.5314 21.419C23.6192 21.5069 23.962 21.5509 24.3575 21.419C25.2025 20.9498 25.8857 20.2359 26.3175 19.3712C26.3922 18.7132 26.3201 18.0468 26.1065 17.42C25.8517 16.8311 25.5528 15.9962 25.5528 15.9786C25.544 15.6095 25.5704 15.4864 25.7286 15.3018ZM17.3087 11.9093C17.6778 12.085 18.381 12.0059 18.3458 11.4083L18.3282 11.1358C18.2579 10.96 18.047 11.004 18.003 11.1798C17.9855 11.2413 18.0294 11.338 17.9767 11.3643C17.9415 11.3995 17.8273 11.3819 17.8273 11.2149C17.8273 11.1622 17.7921 11.1095 17.7657 11.0743C17.7481 11.0567 17.7306 11.0567 17.6866 11.0567C17.6339 11.0567 17.6339 11.0655 17.6075 11.1095C17.5987 11.1534 17.5812 11.1974 17.5812 11.2501C17.5812 11.3116 17.546 11.3292 17.5108 11.338C17.4581 11.338 17.4669 11.338 17.423 11.3204C17.4054 11.294 17.379 11.2852 17.379 11.2325L17.3526 11.0919C17.3351 11.0655 17.2999 11.0479 17.2648 11.0391C17.0626 11.0391 17.045 11.2765 17.0626 11.3643C17.045 11.3819 17.0362 11.795 17.3087 11.9093Z" fill="white" />
		<path fill-rule="evenodd" clip-rule="evenodd" d="M28.163 16.497C28.5321 16.6728 29.4198 16.5761 29.2001 16.0048L29.1825 15.7236C29.1034 15.5478 28.9013 15.5917 28.8573 15.7763C28.8397 15.829 28.8837 15.9257 28.8222 15.9521C28.7958 15.9872 28.6727 15.9697 28.6815 15.8114C28.6815 15.7587 28.6464 15.6972 28.62 15.662C28.5936 15.6532 28.5848 15.6445 28.5321 15.6445C28.4882 15.6445 28.4882 15.662 28.4618 15.706C28.4442 15.7499 28.4354 15.7939 28.4354 15.8466C28.4266 15.8993 28.4003 15.9169 28.3563 15.9345C28.3124 15.9345 28.3212 15.9345 28.286 15.9081C28.2597 15.8818 28.2333 15.873 28.2333 15.829L28.2069 15.6884C28.1893 15.662 28.1542 15.6445 28.119 15.6357C27.9169 15.6357 27.8993 15.8642 27.9081 15.9521C27.8993 15.9697 27.8905 16.3915 28.1718 16.497H28.163ZM34.4911 14.5986C34.8602 14.7743 35.5546 14.6952 35.5282 14.1064L35.5106 13.8251C35.4315 13.6493 35.2294 13.6933 35.1854 13.8691C35.1679 13.9306 35.2118 14.0273 35.1503 14.0624C35.1239 14.0888 35.0009 14.0712 35.0097 13.9042C35.0097 13.8515 34.9745 13.7988 34.9481 13.7636C34.9218 13.746 34.913 13.746 34.8602 13.746C34.8163 13.746 34.8163 13.7636 34.7899 13.8075L34.7636 13.9394C34.7548 14.0009 34.7284 14.0273 34.6845 14.0273C34.6405 14.0273 34.6493 14.0273 34.6141 14.0097C34.5878 13.9833 34.5614 13.9745 34.5614 13.9306C34.5614 13.8866 34.5526 13.8163 34.535 13.7812C34.5175 13.7548 34.4823 13.746 34.4472 13.7372C34.245 13.7372 34.2274 13.9657 34.2362 14.0536C34.2274 14.0712 34.2186 14.4843 34.4999 14.5986H34.4911ZM37.7694 19.371C37.1278 20.1005 37.4091 21.3046 37.5585 21.5683C37.7694 21.9902 37.9364 22.2626 38.3495 22.4736C38.7274 22.746 39.0263 22.579 39.1845 22.3857C39.5624 21.9902 39.5712 20.9794 39.747 20.7861C39.87 20.4169 40.1864 20.4784 40.3358 20.6454C40.4756 20.8439 40.663 21.004 40.8807 21.1113C41.2323 21.4189 41.6542 21.4804 42.0761 21.1991C42.3573 21.0322 42.5419 20.83 42.7089 20.4169C42.8847 19.9247 42.7968 17.6396 42.7528 16.2861L42.3837 14.3964C42.3837 14.3788 42.3397 13.4999 42.2958 13.2978C42.2958 13.2099 42.2694 13.1835 42.3573 13.1923C42.454 13.2802 42.4628 13.2802 42.5331 13.3066C42.621 13.3241 42.7089 13.1572 42.6473 13.0165L41.7684 11.3818C41.6981 11.3114 41.6014 11.2411 41.4872 11.3993C41.4198 11.4604 41.3661 11.535 41.3298 11.6184C41.2934 11.7017 41.2752 11.7918 41.2763 11.8827C41.3026 12.2695 41.3641 12.665 41.3905 13.0517L41.7421 15.038C41.8563 16.4443 41.8827 17.6044 41.997 19.0195C41.9794 19.6171 41.7948 20.1357 41.619 20.2148C41.619 20.2148 41.3554 20.3642 41.1796 20.1972C41.0477 20.1445 40.5292 19.3271 40.5292 19.3271C40.2655 19.0898 40.0897 19.1513 39.9052 19.3271C39.3778 19.8368 39.1493 20.7685 38.7889 21.4189C38.7011 21.5683 38.4374 21.6825 38.1561 21.4101C37.4354 20.4169 37.8573 19.0107 37.7694 19.371ZM34.6581 11.1357C34.9921 11.2675 35.2206 11.9443 35.1503 12.2782C35.08 12.6738 34.9042 13.1132 34.7811 13.0605C34.6405 13.0077 34.869 12.6562 34.7372 12.287C34.6669 12.0409 34.2098 11.6015 34.2626 11.4784C34.1747 11.206 34.4559 11.0829 34.6581 11.1269V11.1357Z" fill="white" />
		<path fill-rule="evenodd" clip-rule="evenodd" d="M38.8419 19.7755C38.9034 18.9669 38.7892 18.4747 38.7716 18.0001C38.754 17.5255 38.2355 13.9044 38.13 13.5528C37.9982 12.8673 38.631 13.4649 38.5606 13.0606C38.3409 12.5684 37.8048 11.839 37.6378 11.4083C37.5323 11.2325 37.5763 11.0567 37.3478 11.3643C37.151 11.9037 37.0818 12.4813 37.1456 13.0518C37.6905 15.8907 38.2442 18.2462 38.1564 20.9444C38.42 20.9444 38.7101 20.3556 38.8419 19.7755ZM44.5021 12.2784C44.8097 12.4278 44.9855 13.2716 44.9503 13.5089C44.8888 13.9483 44.7306 14.4229 44.6163 14.3614C44.4845 14.3087 44.6427 13.711 44.5812 13.5265C44.5108 13.2628 44.0978 12.7882 44.1417 12.6475C44.0538 12.3487 44.3175 12.2257 44.5021 12.2784ZM22.0284 18.2462C22.3185 18.3604 22.4942 18.9757 22.4679 19.1515C22.3976 19.4766 22.2482 19.8282 22.1339 19.7755C22.0196 19.7403 22.1603 19.3009 22.1075 19.1602C22.0812 18.835 21.6769 18.6593 21.6857 18.5186C21.6153 18.255 21.8614 18.211 22.0372 18.2462H22.0284Z" fill="white" />
		<path fill-rule="evenodd" clip-rule="evenodd" d="M29.0243 19.1777C29.3934 19.1953 29.578 19.4941 29.2352 19.6172C28.8837 19.7314 28.5585 19.8281 28.5497 20.3203C28.6815 21.0234 28.3739 20.7773 28.1981 20.6895C27.9872 20.5312 27.3895 20.1621 27.3016 19.3711C27.2928 19.1865 27.4423 19.0195 27.6796 19.0195C28.0311 19.1162 28.5585 19.125 29.0243 19.1777Z" fill="#1B9D00" />
		<path fill-rule="evenodd" clip-rule="evenodd" d="M14.3027 10.9337C14.7246 11.0567 14.7509 11.6895 14.7246 11.8741C14.663 12.2081 14.5136 12.5684 14.4082 12.5245C14.2851 12.4805 14.4082 12.0235 14.3466 11.8829C14.2851 11.6895 13.9248 11.3204 13.9599 11.2149C13.8808 10.9952 14.1357 10.8897 14.3027 10.9337ZM22.7314 13.8868C22.3974 14.0626 22.2744 14.5899 22.4765 14.9063C22.6699 15.17 22.9687 15.0733 23.0039 15.0733C23.3291 15.1085 23.5224 14.4669 23.5224 14.4669C23.5224 14.4669 23.5312 14.2911 23.1533 14.6339C22.9863 14.6602 22.9775 14.5987 22.9335 14.5108C22.8933 14.3435 22.9087 14.1676 22.9775 14.0098C23.039 13.8516 22.916 13.7813 22.7314 13.8868ZM25.1923 10.6876C25.0166 10.8018 24.6914 11.1446 24.6826 11.5313C24.6738 11.751 24.6298 11.751 24.7705 11.8829C24.8847 12.0411 24.9814 12.0323 25.1923 11.918C25.2449 11.8849 25.29 11.8413 25.3248 11.7899C25.3596 11.7384 25.3833 11.6803 25.3945 11.6192C25.4472 11.3731 25.1308 11.7423 25.0957 11.461C25.0253 11.1973 25.2275 11.0919 25.4209 10.8458C25.4209 10.67 25.4209 10.5557 25.1835 10.6876H25.1923ZM27.1611 11.0391C27.0836 11.3592 27.0365 11.6858 27.0205 12.0147C26.9677 12.2608 27.2841 12.3663 27.416 12.0499C27.6269 11.4786 27.6269 11.2325 27.6445 10.9952C27.583 10.6173 27.3281 10.626 27.1611 11.0391ZM39.6416 17.3936C39.6767 17.3497 41.3994 16.128 41.3994 16.128C41.5751 16.0665 41.5312 16.7608 41.4521 16.752C40.9179 17.2669 40.3034 17.6914 39.6328 18.0089C39.5449 18.0704 39.4658 17.543 39.6328 17.3936H39.6416ZM41.1972 17.376C41.5048 17.5255 41.6279 18.4131 41.5927 18.6505C41.5927 19.1251 41.3027 19.4942 41.1796 19.4415C41.0566 19.3799 41.1972 18.8526 41.1357 18.668C41.0654 18.4044 40.8105 17.921 40.8544 17.7803C40.7666 17.4815 41.0126 17.3233 41.206 17.376H41.1972ZM31.0019 21.1905C31.1445 21.0241 31.3102 20.879 31.4941 20.7598C31.6699 20.6719 31.8281 20.8301 31.8193 20.8214C31.8457 20.9971 31.7138 21.1465 31.7578 21.3751C31.7929 21.463 31.8193 21.5684 31.9863 21.5333C32.2587 21.3135 32.5136 21.296 32.7773 21.2872C32.997 21.296 33.0058 21.6563 32.8652 21.6563C32.3642 21.7618 32.1445 21.9024 31.7841 22.0342C31.6083 22.1397 31.4677 22.0079 31.4677 21.9991C31.4677 21.9903 31.371 21.9024 31.4326 21.6739C31.4501 21.4981 31.3798 21.3926 31.2216 21.4102C31.1162 21.4805 31.0107 21.5157 30.958 21.3839C30.9316 21.296 30.9228 21.2432 31.0019 21.1905ZM43.0078 21.6651C43.0781 21.753 43.1308 21.8409 42.999 21.9991L42.6738 22.2803C42.621 22.3682 42.5859 22.5264 42.7617 22.5704C43.0781 22.6583 43.8164 22.1749 43.8164 22.1661C43.9394 22.0782 43.9042 21.9024 43.8867 21.9024C43.8164 21.8233 43.6582 21.876 43.5527 21.8585C43.5 21.8585 43.333 21.8409 43.4121 21.6827C43.4711 21.605 43.5185 21.5192 43.5527 21.4278C43.5966 21.3223 43.5527 21.252 43.3769 21.1905C43.1923 21.1553 43.1132 21.1729 42.9111 21.1905C42.8056 21.2081 42.7705 21.2608 42.7441 21.3926C42.7529 21.5948 42.8759 21.586 43.0078 21.6563V21.6651Z" fill="white" />
		<path fill-rule="evenodd" clip-rule="evenodd" d="M31.0634 16.6727C31.0195 16.7606 30.8613 16.7606 30.7119 16.6727C30.5625 16.5848 30.4746 16.4442 30.5273 16.3651C30.58 16.286 30.7294 16.286 30.8789 16.3651C31.0283 16.4442 31.1074 16.5936 31.0634 16.6727ZM23.2412 11.9617C23.1533 11.9881 23.0302 11.909 22.9775 11.786C22.9248 11.6629 22.9511 11.5574 23.039 11.5311C23.1269 11.5047 23.2412 11.5926 23.3027 11.7069C23.3642 11.8211 23.3291 11.9442 23.2324 11.9705L23.2412 11.9617Z" fill="#259F00" />
		<path fill-rule="evenodd" clip-rule="evenodd" d="M38.7187 32.959C39.5448 32.9941 40.3183 32.959 41.1357 33.0029C41.2851 33.1348 41.1796 33.4424 41.0829 33.4248L40.3974 33.3984C40.3886 33.1348 39.7206 33.1787 39.7382 33.4072C39.3778 33.4512 39.0527 33.3984 38.6835 33.3809C38.578 33.249 38.5956 33.0117 38.7187 32.959Z" fill="#209000" />
	</g>
	<defs>
		<clipPath id="clip0_2714_17158">
			<rect width="60" height="45" fill="white" />
		</clipPath>
	</defs>
</svg>
