<svg viewBox="0 0 331 46" fill="none" xmlns="http://www.w3.org/2000/svg">
	<path fill-rule="evenodd" clip-rule="evenodd" d="M0.709892 21.0613V26.2456H6.7024C9.57238 26.2456 11.9717 27.0253 13.9003 28.5848C15.8289 30.1443 17.3098 31.7355 18.343 33.3582L25.5065 44.6435C26.0346 45.4654 26.8382 45.8763 27.9173 45.8763H31.8434C33.198 45.8763 33.4047 45.1809 32.4633 43.79L24.6799 32.1886C23.7386 30.7766 22.8891 29.6596 22.1314 28.8377C21.3737 27.9948 19.8239 26.7724 17.482 25.1708V25.1076C21.9133 24.7704 25.3228 23.4848 27.7106 21.251C30.1214 19.0171 31.3268 16.2563 31.3268 12.9687C31.3268 9.23858 29.8344 6.23549 26.8496 3.95946C23.8878 1.68342 19.0892 0.54541 12.4538 0.54541H0.710151C0.714999 0.763 0.717982 0.88444 0.719638 0.946904C0.716499 0.865734 0.710151 0.785655 0.710151 1.36729L0.710125 5.7297L0.709892 21.0613ZM0.709892 21.0613L0.710125 5.7297H12.3161C16.1044 5.7297 19.1007 6.21441 21.3048 7.18383C23.509 8.13218 24.6111 9.93403 24.6111 12.5894C24.6111 16.0667 23.4057 18.3532 20.9949 19.4491C18.5841 20.5239 15.1401 21.0613 10.663 21.0613H0.709892Z" fill="black" />
	<path d="M36.3933 2.63177C35.3484 1.24086 35.6764 0.54541 37.3775 0.54541H41.4599C42.5291 0.54541 43.4039 1.06173 44.0843 2.09438L53.3427 15.9086C54.3633 17.426 55.2381 18.7537 55.9671 19.8917C56.6961 21.0086 57.4008 22.1993 58.0813 23.4638H58.2271C58.9075 22.1993 59.6122 21.0086 60.3412 19.8917C61.0702 18.7537 61.945 17.426 62.9656 15.9086L72.224 2.09438C72.9044 1.06173 73.7792 0.54541 74.8484 0.54541H78.9308C80.6319 0.54541 80.9599 1.24086 79.915 2.63177L61.6534 27.2256V44.1378C61.6534 45.2969 61.0459 45.8764 59.8309 45.8764H56.4774C55.2624 45.8764 54.6549 45.2969 54.6549 44.1378V27.2256L36.3933 2.63177Z" fill="black" />
	<path d="M86.842 45.8764C85.627 45.8764 85.0195 45.2969 85.0195 44.1378V2.28405C85.0195 1.12496 85.627 0.54541 86.842 0.54541H116.549C117.886 0.54541 118.554 1.01958 118.554 1.96793V4.30719C118.554 5.25553 117.886 5.72971 116.549 5.72971H92.018V20.7136H113.414C114.751 20.7136 115.419 21.1878 115.419 22.1361V24.4754C115.419 25.4237 114.751 25.8979 113.414 25.8979H92.018V44.1378C92.018 45.2969 91.4105 45.8764 90.1955 45.8764H86.842Z" fill="black" />
	<path d="M127.85 45.8764C126.635 45.8764 126.028 45.2969 126.028 44.1378V2.28405C126.028 1.12496 126.635 0.54541 127.85 0.54541H131.204C132.419 0.54541 133.026 1.12496 133.026 2.28405V44.1378C133.026 45.2969 132.419 45.8764 131.204 45.8764H127.85Z" fill="black" />
	<path d="M145.749 45.8764C144.534 45.8764 143.926 45.2969 143.926 44.1378V2.28405C143.926 1.12496 144.534 0.54541 145.749 0.54541H150.414C152.115 0.54541 153.33 1.07227 154.059 2.12599L176.877 35.2865H177.023C176.974 34.4436 176.95 33.6006 176.95 32.7576V2.28405C176.95 1.12496 177.558 0.54541 178.773 0.54541H182.126C183.341 0.54541 183.949 1.12496 183.949 2.28405V44.1378C183.949 45.2969 183.341 45.8764 182.126 45.8764H178.918C177.217 45.8764 176.002 45.3495 175.273 44.2958L150.998 9.11215H150.852C150.9 9.95512 150.925 10.7981 150.925 11.6411V44.1378C150.925 45.2969 150.317 45.8764 149.102 45.8764H145.749Z" fill="black" />
	<path d="M196.671 45.8764C195.456 45.8764 194.849 45.2969 194.849 44.1378V2.28405C194.849 1.12496 195.456 0.54541 196.671 0.54541H228.565C229.902 0.54541 230.57 1.01958 230.57 1.96793V4.30719C230.57 5.25553 229.902 5.72971 228.565 5.72971H201.847V19.7652H226.378C227.715 19.7652 228.383 20.2394 228.383 21.1878V23.527C228.383 24.4754 227.715 24.9495 226.378 24.9495H201.847V40.6921H229.659C230.995 40.6921 231.664 41.1663 231.664 42.1146V44.4539C231.664 45.4022 230.995 45.8764 229.659 45.8764H196.671Z" fill="black" />
	<path d="M241.47 45.8764C240.255 45.8764 239.648 45.2969 239.648 44.1378V2.28405C239.648 1.12496 240.255 0.54541 241.47 0.54541H259.076C266.098 0.54541 271.177 1.68343 274.312 3.95946C277.471 6.23549 279.05 9.23859 279.05 12.9688C279.05 16.2564 277.775 19.0171 275.223 21.251C272.696 23.4849 269.087 24.7704 264.397 25.1076V25.1708C266.876 26.7725 268.516 27.9948 269.318 28.8378C270.12 29.6597 271.019 30.7766 272.016 32.1886L280.253 43.79C281.25 45.181 281.031 45.8764 279.597 45.8764H275.442C274.3 45.8764 273.449 45.4655 272.89 44.6436L265.309 33.3582C264.215 31.7355 262.648 30.1444 260.607 28.5849C258.565 27.0254 256.026 26.2456 252.988 26.2456H246.646V44.1378C246.646 45.2969 246.039 45.8764 244.824 45.8764H241.47ZM246.646 21.0613H257.18C261.919 21.0613 265.564 20.5239 268.115 19.4491C270.667 18.3533 271.943 16.0667 271.943 12.5894C271.943 9.93405 270.776 8.13219 268.443 7.18384C266.111 6.21442 262.939 5.72971 258.93 5.72971H246.646V21.0613Z" fill="black" />
	<path d="M286.306 2.63177C285.261 1.24086 285.589 0.54541 287.29 0.54541H291.372C292.441 0.54541 293.316 1.06173 293.997 2.09438L303.255 15.9086C304.276 17.426 305.15 18.7537 305.879 19.8917C306.608 21.0086 307.313 22.1993 307.993 23.4638H308.139C308.82 22.1993 309.524 21.0086 310.253 19.8917C310.982 18.7537 311.857 17.426 312.878 15.9086L322.136 2.09438C322.817 1.06173 323.691 0.54541 324.761 0.54541H328.843C330.544 0.54541 330.872 1.24086 329.827 2.63177L311.566 27.2256V44.1378C311.566 45.2969 310.958 45.8764 309.743 45.8764H306.39C305.175 45.8764 304.567 45.2969 304.567 44.1378V27.2256L286.306 2.63177Z" fill="black" />
</svg>
