<svg width="120" height="19" viewBox="0 0 120 19" fill="none" xmlns="http://www.w3.org/2000/svg">
	<path fill-rule="evenodd" clip-rule="evenodd" d="M0.257812 8.59901V10.772H2.43412C3.47641 10.772 4.34777 11.0988 5.04819 11.7524C5.74861 12.4061 6.28644 13.073 6.66166 13.7531L9.26323 18.4832C9.45501 18.8277 9.74685 19 10.1388 19H11.5646C12.0566 19 12.1316 18.7085 11.7897 18.1255L8.96305 13.2629C8.62117 12.6711 8.31266 12.2029 8.03749 11.8584C7.76232 11.5051 7.19949 10.9928 6.34897 10.3215V10.295C7.95828 10.1536 9.19652 9.61482 10.0637 8.67851C10.9392 7.7422 11.377 6.58507 11.377 5.20711C11.377 3.64365 10.835 2.38493 9.75102 1.43096C8.67537 0.476987 6.93266 0 4.52288 0H0.257907C0.259667 0.0912004 0.26075 0.142101 0.261352 0.168282C0.260212 0.13426 0.257907 0.100696 0.257907 0.344482L0.257812 2.17294V8.59901ZM0.257812 8.59901V2.17294H4.47285C5.84867 2.17294 6.93683 2.3761 7.73731 2.78242C8.53779 3.17991 8.93803 3.93514 8.93803 5.04811C8.93803 6.50557 8.50027 7.46396 7.62474 7.92328C6.74922 8.37377 5.49846 8.59901 3.87249 8.59901H0.257812Z" fill="#AFB1B8" />
	<path d="M13.2166 0.874477C12.8371 0.291492 12.9563 0 13.574 0H15.0566C15.445 0 15.7627 0.216411 16.0098 0.649233L19.3721 6.43933C19.7428 7.07531 20.0605 7.6318 20.3253 8.10879C20.59 8.57694 20.8459 9.07601 21.093 9.606H21.146C21.3931 9.07601 21.649 8.57694 21.9138 8.10879C22.1785 7.6318 22.4962 7.07531 22.8669 6.43933L26.2293 0.649233C26.4764 0.216411 26.7941 0 27.1824 0H28.665C29.2828 0 29.4019 0.291492 29.0224 0.874477L22.3903 11.1827V18.2713C22.3903 18.7571 22.1697 19 21.7285 19H20.5106C20.0693 19 19.8487 18.7571 19.8487 18.2713V11.1827L13.2166 0.874477Z" fill="#AFB1B8" />
	<path d="M31.5381 19C31.0969 19 30.8763 18.7571 30.8763 18.2713V0.728731C30.8763 0.24291 31.0969 0 31.5381 0H42.3269C42.8123 0 43.0549 0.198745 43.0549 0.596234V1.57671C43.0549 1.9742 42.8123 2.17294 42.3269 2.17294H33.4179V8.45328H41.1884C41.6738 8.45328 41.9165 8.65202 41.9165 9.04951V10.03C41.9165 10.4275 41.6738 10.6262 41.1884 10.6262H33.4179V18.2713C33.4179 18.7571 33.1973 19 32.756 19H31.5381Z" fill="#AFB1B8" />
	<path d="M46.4311 19C45.9898 19 45.7692 18.7571 45.7692 18.2713V0.728731C45.7692 0.24291 45.9898 0 46.4311 0H47.649C48.0902 0 48.3109 0.24291 48.3109 0.728731V18.2713C48.3109 18.7571 48.0902 19 47.649 19H46.4311Z" fill="#AFB1B8" />
	<path d="M52.9313 19C52.4901 19 52.2695 18.7571 52.2695 18.2713V0.728731C52.2695 0.24291 52.4901 0 52.9313 0H54.6258C55.2435 0 55.6848 0.220828 55.9495 0.662483L64.2364 14.5614H64.2893C64.2717 14.208 64.2628 13.8547 64.2628 13.5014V0.728731C64.2628 0.24291 64.4835 0 64.9247 0H66.1426C66.5838 0 66.8045 0.24291 66.8045 0.728731V18.2713C66.8045 18.7571 66.5838 19 66.1426 19H64.9777C64.3599 19 63.9186 18.7792 63.6539 18.3375L54.8376 3.59066H54.7846C54.8023 3.94398 54.8111 4.2973 54.8111 4.65063V18.2713C54.8111 18.7571 54.5905 19 54.1492 19H52.9313Z" fill="#AFB1B8" />
	<path d="M71.425 19C70.9837 19 70.7631 18.7571 70.7631 18.2713V0.728731C70.7631 0.24291 70.9837 0 71.425 0H83.008C83.4933 0 83.736 0.198745 83.736 0.596234V1.57671C83.736 1.9742 83.4933 2.17294 83.008 2.17294H73.3047V8.05579H82.2137C82.6991 8.05579 82.9418 8.25453 82.9418 8.65202V9.6325C82.9418 10.03 82.6991 10.2287 82.2137 10.2287H73.3047V16.8271H83.4051C83.8905 16.8271 84.1332 17.0258 84.1332 17.4233V18.4038C84.1332 18.8013 83.8905 19 83.4051 19H71.425Z" fill="#AFB1B8" />
	<path d="M87.6946 19C87.2534 19 87.0328 18.7571 87.0328 18.2713V0.728731C87.0328 0.24291 87.2534 0 87.6946 0H94.0885C96.6389 0 98.4834 0.476987 99.6218 1.43096C100.769 2.38494 101.343 3.64365 101.343 5.20711C101.343 6.58508 100.879 7.74221 99.9528 8.67852C99.035 9.61483 97.7244 10.1536 96.0212 10.295V10.3215C96.9213 10.9928 97.517 11.5051 97.8083 11.8584C98.0995 12.2029 98.426 12.6711 98.7878 13.2629L101.78 18.1255C102.141 18.7085 102.062 19 101.541 19H100.032C99.6174 19 99.3085 18.8278 99.1056 18.4833L96.3521 13.7531C95.955 13.073 95.3858 12.4061 94.6444 11.7524C93.9031 11.0988 92.9809 10.772 91.8778 10.772H89.5744V18.2713C89.5744 18.7571 89.3538 19 88.9125 19H87.6946ZM89.5744 8.59902H93.4001C95.121 8.59902 96.4448 8.37378 97.3714 7.92329C98.2981 7.46397 98.7614 6.50558 98.7614 5.04812C98.7614 3.93515 98.3378 3.17992 97.4906 2.78243C96.6433 2.3761 95.4917 2.17294 94.0355 2.17294H89.5744V8.59902Z" fill="#AFB1B8" />
	<path d="M103.978 0.874477C103.598 0.291492 103.717 0 104.335 0H105.818C106.206 0 106.524 0.216411 106.771 0.649233L110.133 6.43933C110.504 7.07531 110.821 7.6318 111.086 8.10879C111.351 8.57694 111.607 9.07601 111.854 9.606H111.907C112.154 9.07601 112.41 8.57694 112.675 8.10879C112.939 7.6318 113.257 7.07531 113.628 6.43933L116.99 0.649233C117.237 0.216411 117.555 0 117.943 0H119.426C120.044 0 120.163 0.291492 119.783 0.874477L113.151 11.1827V18.2713C113.151 18.7571 112.931 19 112.489 19H111.272C110.83 19 110.61 18.7571 110.61 18.2713V11.1827L103.978 0.874477Z" fill="#AFB1B8" />
</svg>
