<svg width="193" height="78" viewBox="0 0 193 78" fill="none" xmlns="http://www.w3.org/2000/svg">
	<path d="M98.0953 69.9462C97.3965 69.9042 96.8796 69.6855 96.5445 69.29C96.2219 68.8912 96.0288 68.397 95.9652 67.8074C95.9108 67.2019 95.9692 66.5392 96.1402 65.8194C96.3079 65.087 96.547 64.3691 96.8573 63.6659C97.1676 62.9626 97.5183 62.3093 97.9093 61.7057C98.3002 61.1022 98.6901 60.6203 99.0788 60.26C99.4802 59.8964 99.8511 59.6959 100.192 59.6586C100.532 59.6212 100.801 59.8189 100.997 60.2514C101.089 60.4425 101.123 60.6694 101.099 60.9319C101.087 61.1911 101.037 61.4541 100.946 61.721C100.865 61.9718 100.756 62.2169 100.618 62.4561C100.489 62.6794 100.348 62.8586 100.196 62.9938C100.056 63.1257 99.9131 63.1976 99.768 63.2095C99.6355 63.218 99.5251 63.133 99.4369 62.9545C99.5204 62.6625 99.6228 62.3654 99.744 62.0634C99.8619 61.7487 99.9786 61.4546 100.094 61.181C99.9815 61.0629 99.8284 61.0702 99.6348 61.2029C99.4412 61.3357 99.2238 61.5557 98.9826 61.863C98.7414 62.1702 98.4982 62.5454 98.253 62.9886C98.017 63.4158 97.7957 63.8728 97.5891 64.3595C97.3825 64.8462 97.2124 65.3434 97.0788 65.851C96.9544 66.3426 96.8896 66.8048 96.8842 67.2376C96.8789 67.6704 96.9485 68.0562 97.0932 68.3949C97.2471 68.7176 97.5036 68.9454 97.8627 69.0784C98.2879 69.0049 98.7557 68.8391 99.2662 68.581C99.7733 68.3103 100.285 68.0048 100.8 67.6645C101.315 67.3242 101.821 66.973 102.317 66.6109C102.823 66.2329 103.276 65.8888 103.679 65.5789C104.093 65.2655 104.445 65.0164 104.732 64.8315C105.029 64.6307 105.234 64.542 105.348 64.5653C105.621 64.6271 105.682 64.8061 105.532 65.1023C105.395 65.3952 105.119 65.7457 104.702 66.1539C104.286 66.562 103.775 66.9954 103.17 67.4541C102.574 67.8968 101.964 68.3098 101.338 68.693C100.71 69.0636 100.105 69.3739 99.5254 69.6237C98.9419 69.8609 98.4652 69.9684 98.0953 69.9462ZM106.537 67.6844C106.101 67.518 105.773 67.2487 105.552 66.8766C105.343 66.5011 105.214 66.0705 105.165 65.5849C105.113 65.0868 105.113 64.5609 105.167 64.0073C105.234 63.4502 105.318 62.9087 105.419 62.3827C105.534 61.8533 105.645 61.365 105.755 60.9179C105.877 60.4673 105.967 60.0994 106.025 59.8142C106.043 59.7286 106.082 59.5226 106.143 59.1963C106.216 58.8666 106.289 58.51 106.362 58.1266C106.434 57.7432 106.501 57.3884 106.562 57.062C106.632 56.7197 106.675 56.5058 106.693 56.4202C106.714 56.3472 106.732 56.2143 106.748 56.0213C106.773 55.8125 106.801 55.5893 106.831 55.3519C106.862 55.1145 106.902 54.888 106.953 54.6724C107.012 54.4408 107.086 54.2659 107.176 54.1475C107.278 54.0257 107.394 53.9811 107.524 54.0137C107.667 54.0429 107.837 54.1995 108.034 54.4836C108.018 54.6229 107.959 54.9081 107.859 55.3394C107.772 55.7672 107.667 56.2807 107.544 56.8797C107.421 57.4787 107.283 58.1427 107.127 58.8718C106.985 59.5975 106.85 60.3278 106.724 61.0626C106.597 61.7975 106.486 62.5148 106.39 63.2144C106.291 63.9015 106.223 64.5264 106.185 65.0893C106.156 65.6362 106.169 66.0845 106.222 66.4342C106.284 66.7679 106.401 66.9523 106.572 66.9873C106.772 67.0282 107.008 67.0052 107.282 66.9185C107.564 66.8159 107.85 66.6989 108.138 66.5677C108.426 66.4366 108.709 66.307 108.984 66.1792C109.257 66.0388 109.502 65.9463 109.719 65.9016C109.799 66.0013 109.792 66.1246 109.697 66.2715C109.598 66.4058 109.447 66.5473 109.244 66.696C109.038 66.8321 108.792 66.9721 108.507 67.1158C108.232 67.2437 107.959 67.3572 107.689 67.4565C107.431 67.5524 107.194 67.6228 106.977 67.6675C106.772 67.7088 106.625 67.7144 106.537 67.6844ZM110.601 66.5953C110.672 64.7969 110.785 63.3579 110.941 62.2783C111.105 61.1827 111.274 60.4029 111.446 59.9388C111.631 59.4714 111.792 59.2934 111.93 59.4048C112.067 59.5162 112.149 59.8717 112.175 60.4714C112.214 61.0677 112.166 61.896 112.032 62.9564C111.908 64.0007 111.663 65.2256 111.298 66.6309C111.208 66.6956 111.09 66.7339 110.945 66.7459C110.8 66.7578 110.685 66.7076 110.601 66.5953ZM111.471 56.6362C111.429 56.5801 111.386 56.4703 111.342 56.3068C111.298 56.1433 111.284 56.0393 111.299 55.9948C111.561 55.8167 111.778 55.7451 111.949 55.7801C112.12 55.8152 112.245 55.9031 112.323 56.0439C112.398 56.1721 112.432 56.3247 112.426 56.5017C112.432 56.6753 112.396 56.8197 112.319 56.9347C112.239 57.0371 112.123 57.0817 111.971 57.0684C111.828 57.0392 111.662 56.8952 111.471 56.6362ZM115.854 65.1878C115.155 65.1458 114.638 64.9271 114.303 64.5316C113.981 64.1328 113.788 63.6386 113.724 63.049C113.67 62.4435 113.728 61.7808 113.899 61.061C114.067 60.3285 114.306 59.6107 114.616 58.9075C114.926 58.2042 115.277 57.5508 115.668 56.9473C116.059 56.3438 116.449 55.8619 116.838 55.5016C117.239 55.1379 117.61 54.9374 117.95 54.9001C118.291 54.8628 118.559 55.0604 118.756 55.493C118.848 55.6841 118.882 55.911 118.858 56.1735C118.846 56.4327 118.795 56.6957 118.705 56.9625C118.624 57.2134 118.514 57.4585 118.376 57.6977C118.247 57.9209 118.107 58.1002 117.954 58.2354C117.814 58.3672 117.672 58.4391 117.527 58.451C117.394 58.4596 117.284 58.3746 117.196 58.196C117.279 57.9041 117.381 57.607 117.503 57.3049C117.621 56.9903 117.737 56.6961 117.853 56.4226C117.74 56.3044 117.587 56.3118 117.393 56.4445C117.2 56.5773 116.983 56.7973 116.741 57.1045C116.5 57.4118 116.257 57.787 116.012 58.2302C115.776 58.6574 115.554 59.1143 115.348 59.6011C115.141 60.0878 114.971 60.5849 114.838 61.0925C114.713 61.5842 114.648 62.0464 114.643 62.4792C114.638 62.912 114.707 63.2978 114.852 63.6364C115.006 63.9592 115.262 64.187 115.621 64.3199C116.047 64.2465 116.514 64.0807 117.025 63.8226C117.532 63.5519 118.043 63.2464 118.559 62.9061C119.074 62.5658 119.58 62.2146 120.076 61.8525C120.581 61.4744 121.035 61.1304 121.437 60.8204C121.852 60.5071 122.203 60.258 122.491 60.0731C122.787 59.8723 122.993 59.7836 123.107 59.8069C123.38 59.8686 123.441 60.0476 123.291 60.3439C123.154 60.6368 122.877 60.9873 122.461 61.3954C122.044 61.8036 121.534 62.237 120.929 62.6956C120.333 63.1384 119.722 63.5513 119.097 63.9346C118.469 64.3052 117.864 64.6154 117.284 64.8652C116.701 65.1025 116.224 65.21 115.854 65.1878ZM131.103 60.6368C130.001 59.7457 129.109 59.0074 128.427 58.4219C127.741 57.8239 127.193 57.3909 126.784 57.123C126.376 56.8551 126.072 56.7544 125.874 56.8209C125.677 56.8874 125.509 57.1413 125.371 57.5827C125.242 58.0081 125.104 58.6247 124.957 59.4326C124.809 60.2405 124.581 61.2519 124.273 62.4667C124.235 62.6253 124.177 62.7353 124.099 62.7966C124.03 62.8419 123.955 62.8622 123.872 62.8572C123.787 62.8397 123.701 62.7954 123.614 62.7242C123.528 62.653 123.452 62.5721 123.388 62.4816C123.316 62.366 123.296 62.1152 123.328 61.7294C123.356 61.3309 123.422 60.8481 123.526 60.281C123.639 59.698 123.777 59.0545 123.939 58.3506C124.11 57.6307 124.29 56.8949 124.48 56.1432C124.682 55.3881 124.879 54.6409 125.072 53.9018C125.277 53.1592 125.465 52.4754 125.634 51.8504C125.813 51.2093 125.973 50.6476 126.113 50.1652C126.253 49.6827 126.353 49.3257 126.412 49.0941C126.484 49.0077 126.57 48.9778 126.672 49.0045C126.786 49.0279 126.889 49.0877 126.982 49.184C127.085 49.2644 127.166 49.3642 127.224 49.4832C127.28 49.5896 127.293 49.6873 127.263 49.7763L126.363 53.212L126.48 53.6459C126.761 53.6381 127.082 53.5316 127.445 53.3265C127.818 53.1054 128.203 52.8336 128.602 52.5111C129.013 52.1852 129.423 51.8261 129.83 51.4339C130.234 51.0292 130.614 50.6374 130.971 50.2587C131.337 49.8641 131.658 49.5018 131.933 49.1718C132.218 48.8259 132.441 48.5505 132.602 48.3457C132.741 48.2139 132.879 48.1499 133.015 48.154C133.164 48.1546 133.283 48.1968 133.373 48.2806C133.475 48.361 133.539 48.4721 133.563 48.6138C133.588 48.7555 133.558 48.8981 133.475 49.0417C133.221 49.5008 132.884 49.9281 132.464 50.3236C132.054 50.7032 131.607 51.0724 131.123 51.4311C130.636 51.7773 130.135 52.1205 129.62 52.4608C129.113 52.7852 128.631 53.1233 128.173 53.4753C127.714 53.8273 127.307 54.1926 126.95 54.5714C126.593 54.9501 126.325 55.3588 126.146 55.7977C126.347 55.8923 126.62 56.0551 126.965 56.2861C127.319 56.5013 127.702 56.7491 128.114 57.0296C128.539 57.3067 128.97 57.609 129.409 57.9364C129.843 58.2512 130.239 58.5699 130.595 58.8924C130.96 59.1989 131.267 59.4875 131.514 59.7581C131.771 60.0128 131.923 60.2282 131.971 60.4043L132.087 60.8382C132 60.9155 131.91 60.9596 131.819 60.9706C131.737 60.9657 131.651 60.9482 131.562 60.9181C131.473 60.888 131.389 60.8499 131.309 60.8039C131.239 60.7419 131.17 60.6862 131.103 60.6368ZM146.328 57.0222C146.309 57.0004 146.284 56.9329 146.254 56.8198C146.223 56.7066 146.209 56.6294 146.212 56.5883C146.213 56.4399 146.218 56.1823 146.227 55.8158C146.234 55.4367 146.243 55.0433 146.255 54.6357C146.264 54.2154 146.273 53.8221 146.282 53.4555C146.292 53.089 146.297 52.8315 146.298 52.683C146.301 52.4934 146.304 52.277 146.306 52.0338C146.305 51.778 146.257 51.5482 146.162 51.3445C145.966 51.3699 145.74 51.4574 145.484 51.607C145.224 51.7441 144.962 51.8748 144.699 51.9992C144.445 52.1077 144.194 52.1751 143.945 52.2014C143.705 52.2118 143.501 52.1047 143.333 51.8801C143.399 51.5252 143.572 51.2633 143.85 51.0944C144.125 50.9129 144.433 50.7561 144.776 50.624C145.118 50.4919 145.436 50.346 145.73 50.1863C146.037 50.0232 146.249 49.7844 146.367 49.4697C146.393 49.1123 146.418 48.6808 146.445 48.175C146.48 47.6532 146.517 47.111 146.555 46.5481C146.593 45.9853 146.645 45.4253 146.711 44.8683C146.79 44.308 146.891 43.8025 147.013 43.3519C147.127 43.2268 147.239 43.1902 147.347 43.2421C147.455 43.294 147.549 43.3903 147.627 43.5311C147.714 43.656 147.784 43.7922 147.837 43.9397C147.89 44.0873 147.917 44.1879 147.918 44.2416C147.93 44.5888 147.893 44.9764 147.805 45.4042C147.727 45.8162 147.656 46.2327 147.594 46.6538C147.544 47.0716 147.52 47.4826 147.52 47.8868C147.533 48.2878 147.629 48.6462 147.808 48.9622L151.864 47.8754C151.877 47.872 151.92 47.9076 151.994 47.9821C152.065 48.0441 152.125 48.0952 152.177 48.1354C152.287 48.2946 152.249 48.4327 152.065 48.5495C151.881 48.6663 151.622 48.7828 151.289 48.8989C150.953 49.0025 150.567 49.1195 150.13 49.25C149.702 49.3646 149.295 49.5073 148.91 49.678C148.533 49.8328 148.207 50.0215 147.929 50.2441C147.648 50.4541 147.487 50.7063 147.444 51.0008C147.343 51.9311 147.269 52.8609 147.221 53.7903C147.17 54.7071 147.135 55.6331 147.116 56.5684C147.101 56.6128 147.068 56.6892 147.016 56.7975C146.961 56.8931 146.898 56.9842 146.826 57.0707C146.752 57.1446 146.669 57.187 146.577 57.1981C146.499 57.2057 146.416 57.1471 146.328 57.0222ZM152.958 55.2457C152.373 55.1734 151.954 54.942 151.701 54.5514C151.46 54.1575 151.34 53.6842 151.34 53.1315C151.337 52.5661 151.431 51.9613 151.623 51.3169C151.81 50.6599 152.05 50.0432 152.34 49.4666C152.63 48.89 152.941 48.3889 153.272 47.9633C153.612 47.5217 153.928 47.2416 154.219 47.123C154.972 46.8134 155.597 46.7066 156.095 46.8025C156.601 46.8824 156.989 47.0954 157.257 47.4414C157.525 47.7875 157.692 48.2348 157.758 48.7833C157.821 49.3191 157.791 49.8866 157.668 50.4856C157.558 51.0812 157.361 51.6799 157.078 52.2816C156.807 52.88 156.465 53.4164 156.053 53.8907C155.65 54.3492 155.187 54.7091 154.664 54.9706C154.138 55.2195 153.569 55.3112 152.958 55.2457ZM152.463 54.2259C152.671 54.6014 152.946 54.7705 153.286 54.7332C153.623 54.6833 153.979 54.5005 154.352 54.1847C154.735 53.8529 155.113 53.428 155.487 52.9101C155.857 52.3796 156.175 51.8294 156.44 51.2596C156.718 50.6864 156.92 50.1334 157.047 49.6006C157.183 49.0519 157.197 48.6032 157.09 48.2544C156.996 47.9022 156.756 47.6836 156.369 47.5985C155.991 47.4975 155.428 47.608 154.678 47.9302C154.546 48.1408 154.374 48.4027 154.161 48.7159C153.945 49.0164 153.723 49.3454 153.495 49.703C153.28 50.0572 153.072 50.4366 152.87 50.8411C152.665 51.233 152.501 51.6274 152.378 52.0243C152.255 52.4212 152.191 52.8092 152.185 53.1883C152.191 53.5641 152.284 53.9099 152.463 54.2259ZM164.478 59.4585C164.126 59.4044 163.761 59.3 163.383 59.1453C162.992 58.9939 162.67 58.7972 162.416 58.5551C162.15 58.3164 161.992 58.0285 161.942 57.6914C161.883 57.3702 162.014 57.0048 162.336 56.5951C162.427 56.5841 162.507 56.6301 162.575 56.7332C162.643 56.8363 162.712 56.9662 162.78 57.123C162.837 57.2831 162.903 57.4541 162.979 57.636C163.042 57.8213 163.135 57.9919 163.257 58.1477C163.367 58.307 163.502 58.4326 163.662 58.5247C163.821 58.6168 164.017 58.6451 164.25 58.6095C164.853 58.5426 165.349 58.3084 165.741 57.907C166.135 57.5182 166.454 57.0217 166.696 56.4175C166.926 55.8167 167.101 55.1362 167.221 54.3762C167.344 53.6287 167.435 52.8628 167.495 52.0785C167.554 51.2942 167.589 50.5167 167.598 49.7459C167.607 48.975 167.628 48.2751 167.662 47.646C167.696 47.0169 167.748 46.4838 167.82 46.0467C167.891 45.6097 168.018 45.3264 168.199 45.197C168.379 45.2161 168.52 45.4412 168.622 45.8721C168.737 46.2998 168.808 46.8671 168.836 47.5741C168.873 48.2652 168.868 49.0549 168.823 49.9432C168.775 50.8189 168.683 51.7064 168.546 52.6057C168.413 53.5176 168.232 54.4018 168.003 55.2585C167.762 56.1185 167.478 56.8686 167.15 57.509C166.814 58.1653 166.425 58.674 165.982 59.0352C165.54 59.3964 165.038 59.5375 164.478 59.4585ZM167.344 42.0087C167.108 41.8295 167.01 41.6669 167.052 41.5209C167.09 41.3624 167.18 41.2708 167.322 41.2463C167.464 41.2218 167.623 41.2871 167.799 41.442C167.972 41.5844 168.073 41.8607 168.102 42.2708C168.049 42.3254 167.98 42.3439 167.895 42.3264C167.809 42.3089 167.726 42.2771 167.647 42.2311C167.567 42.185 167.493 42.1373 167.426 42.0879C167.372 42.0351 167.344 42.0087 167.344 42.0087ZM170.962 50.4215C170.377 50.3493 169.958 50.1178 169.705 49.7273C169.464 49.3334 169.344 48.86 169.344 48.3073C169.341 47.742 169.435 47.1371 169.627 46.4928C169.814 45.8358 170.054 45.219 170.344 44.6425C170.634 44.0659 170.945 43.5648 171.276 43.1392C171.616 42.6976 171.932 42.4175 172.223 42.2989C172.976 41.9893 173.601 41.8824 174.099 41.9783C174.605 42.0582 174.993 42.2712 175.261 42.6173C175.529 42.9634 175.696 43.4107 175.762 43.9591C175.825 44.495 175.795 45.0624 175.672 45.6615C175.562 46.2571 175.365 46.8558 175.082 47.4575C174.811 48.0558 174.469 48.5922 174.057 49.0666C173.654 49.525 173.191 49.885 172.668 50.1465C172.142 50.3954 171.573 50.4871 170.962 50.4215ZM170.467 49.4018C170.675 49.7773 170.95 49.9464 171.29 49.9091C171.627 49.8592 171.983 49.6763 172.356 49.3605C172.739 49.0288 173.117 48.6039 173.491 48.0859C173.861 47.5554 174.179 47.0052 174.444 46.4354C174.722 45.8622 174.924 45.3092 175.051 44.7765C175.187 44.2278 175.201 43.779 175.094 43.4302C175 43.0781 174.759 42.8595 174.373 42.7744C173.995 42.6733 173.432 42.7839 172.682 43.106C172.55 43.3167 172.377 43.5786 172.165 43.8917C171.949 44.1922 171.727 44.5213 171.499 44.8789C171.284 45.2331 171.076 45.6124 170.874 46.017C170.669 46.4089 170.505 46.8033 170.382 47.2002C170.259 47.5971 170.195 47.985 170.189 48.3642C170.195 48.7399 170.288 49.0858 170.467 49.4018ZM176.536 48.9281C176.607 47.1297 176.72 45.6907 176.876 44.611C177.04 43.5154 177.209 42.7356 177.381 42.2716C177.566 41.8042 177.727 41.6262 177.865 41.7376C178.002 41.849 178.084 42.2045 178.11 42.8042C178.149 43.4005 178.101 44.2288 177.967 45.2891C177.843 46.3335 177.598 47.5584 177.233 48.9637C177.143 49.0284 177.025 49.0667 176.88 49.0786C176.735 49.0905 176.62 49.0404 176.536 48.9281ZM177.406 38.969C177.364 38.9129 177.321 38.803 177.277 38.6395C177.233 38.476 177.219 38.372 177.234 38.3276C177.496 38.1494 177.713 38.0779 177.884 38.1129C178.055 38.1479 178.18 38.2359 178.258 38.3767C178.333 38.5049 178.367 38.6575 178.361 38.8345C178.367 39.0081 178.331 39.1524 178.254 39.2674C178.174 39.3698 178.058 39.4144 177.906 39.4012C177.763 39.372 177.597 39.2279 177.406 38.969ZM187.222 46.0647C187.073 45.6597 186.995 45.2426 186.988 44.8131C186.99 44.3677 187.027 43.9265 187.098 43.4895C187.179 43.0364 187.268 42.588 187.365 42.1442C187.471 41.6844 187.549 41.2457 187.598 40.8279C187.645 40.3976 187.651 39.9916 187.616 39.61C187.578 39.2159 187.453 38.8516 187.242 38.5172C186.897 38.4882 186.539 38.6111 186.168 38.8858C185.81 39.1572 185.449 39.5233 185.088 39.9842C184.722 40.4325 184.355 40.9488 183.986 41.533C183.626 42.1013 183.276 42.6804 182.935 43.2705C182.604 43.8446 182.286 44.3948 181.982 44.921C181.678 45.4473 181.394 45.8943 181.128 46.2619C180.872 46.6137 180.641 46.8576 180.435 46.9937C180.225 47.1173 180.052 47.076 179.916 46.8698C179.9 46.8606 179.927 46.6849 179.997 46.3426C180.076 45.9843 180.167 45.5422 180.269 45.0162C180.383 44.4868 180.506 43.9146 180.638 43.2997C180.782 42.6813 180.918 42.1058 181.045 41.573C181.168 41.0277 181.28 40.5663 181.381 40.1887C181.482 39.8111 181.555 39.603 181.598 39.5644C181.91 39.6697 182.094 39.8293 182.151 40.0431C182.218 40.241 182.243 40.4632 182.229 40.7098C182.211 40.9438 182.181 41.1875 182.142 41.4409C182.114 41.6909 182.162 41.9206 182.286 42.1302C182.45 41.9379 182.676 41.6751 182.964 41.3418C183.262 40.9925 183.582 40.6302 183.927 40.2548C184.283 39.8761 184.655 39.5004 185.04 39.1275C185.438 38.7513 185.82 38.4401 186.185 38.1939C186.547 37.9351 186.884 37.7573 187.195 37.6605C187.518 37.5603 187.782 37.5906 187.987 37.7514C188.192 37.9122 188.326 38.2337 188.387 38.7159C188.458 39.1821 188.43 39.8569 188.303 40.7403C188.289 40.8384 188.252 41.0775 188.192 41.4575C188.141 41.8216 188.08 42.2222 188.008 42.6593C187.946 43.0804 187.885 43.481 187.825 43.861C187.774 44.2251 187.742 44.4562 187.728 44.5543C187.728 44.608 187.735 44.7074 187.747 44.8525C187.768 44.9816 187.788 45.1313 187.806 45.3016C187.822 45.4592 187.824 45.6203 187.815 45.7847C187.801 45.9365 187.767 46.0602 187.712 46.1559C187.657 46.2516 187.567 46.2689 187.443 46.2078C187.315 46.1342 187.242 46.0865 187.222 46.0647Z" fill="black" />
	<path d="M111.209 29.2803C110.843 28.8661 110.211 28.8265 109.797 29.1918C109.383 29.5572 109.344 30.1891 109.709 30.6033L111.209 29.2803ZM117.315 37.7147L117.252 38.7128C117.517 38.7294 117.778 38.6401 117.976 38.4647C118.175 38.2893 118.296 38.042 118.313 37.7773L117.315 37.7147ZM118.771 30.4627C118.806 29.9115 118.387 29.4367 117.836 29.4021C117.285 29.3676 116.81 29.7864 116.775 30.3376L118.771 30.4627ZM110.063 36.2583C109.512 36.2237 109.037 36.6426 109.002 37.1938C108.968 37.745 109.387 38.2198 109.938 38.2544L110.063 36.2583ZM0.223499 24.5346C0.0364514 25.0542 0.306074 25.6271 0.82572 25.8142C1.34537 26.0012 1.91825 25.7316 2.1053 25.212L0.223499 24.5346ZM3.61714 21.4892L2.89758 20.7948L2.89758 20.7948L3.61714 21.4892ZM19.7758 9.5222L19.3163 8.63406L19.3162 8.63406L19.7758 9.5222ZM62.878 4.07849L62.5764 5.03193L62.878 4.07849ZM81.7466 20.578L80.7592 20.7365L80.7592 20.7365L81.7466 20.578ZM76.1889 32.1699L75.5388 31.41L75.5388 31.41L76.1889 32.1699ZM61.6011 39.4358L61.8106 40.4136L61.8106 40.4136L61.6011 39.4358ZM49.4476 35.4851L50.4433 35.3925L50.4433 35.3924L49.4476 35.4851ZM52.8465 27.9512L52.1151 27.2692L52.1151 27.2692L52.8465 27.9512ZM69.2992 19.2994L69.0603 18.3284L69.0603 18.3284L69.2992 19.2994ZM101.662 23.1277L101.164 23.9949L101.164 23.9949L101.662 23.1277ZM114.33 35.7946C114.634 36.2556 115.254 36.3826 115.715 36.0784C116.176 35.7742 116.303 35.1539 115.999 34.693L114.33 35.7946ZM109.709 30.6033L116.565 38.3762L118.065 37.0532L111.209 29.2803L109.709 30.6033ZM116.775 30.3376L116.317 37.6522L118.313 37.7773L118.771 30.4627L116.775 30.3376ZM117.377 36.7167L110.063 36.2583L109.938 38.2544L117.252 38.7128L117.377 36.7167ZM2.1053 25.212C2.49598 24.1266 3.27171 23.2872 4.3367 22.1836L2.89758 20.7948C1.87814 21.8511 0.781976 22.9831 0.223499 24.5346L2.1053 25.212ZM4.3367 22.1836C8.79703 17.5619 14.1742 13.5468 20.2354 10.4103L19.3162 8.63406C13.0665 11.8681 7.5126 16.0127 2.89758 20.7948L4.3367 22.1836ZM20.2354 10.4103C33.0121 3.79897 48.2351 0.495649 62.5764 5.03193L63.1795 3.12505C48.1708 -1.62234 32.386 1.87104 19.3163 8.63406L20.2354 10.4103ZM62.5764 5.03193C66.6796 6.32981 70.9619 8.41584 74.356 11.1235C77.7591 13.8382 80.1756 17.0995 80.7592 20.7365L82.7339 20.4196C82.0417 16.1057 79.2184 12.444 75.6033 9.56002C71.9793 6.66897 67.4652 4.48065 63.1795 3.12505L62.5764 5.03193ZM80.7592 20.7365C81.4005 24.7327 79.1361 28.3325 75.5388 31.41L76.839 32.9297C80.6247 29.6911 83.5418 25.4536 82.7339 20.4196L80.7592 20.7365ZM75.5388 31.41C71.6998 34.6942 66.7318 37.3139 61.3916 38.458L61.8106 40.4136C67.4997 39.1948 72.766 36.4141 76.839 32.9297L75.5388 31.41ZM61.3916 38.458C59.3324 38.8991 56.5571 39.1446 54.2905 38.7058C53.1606 38.487 52.2319 38.1123 51.5772 37.5768C50.9501 37.0639 50.5347 36.3743 50.4433 35.3925L48.4519 35.5778C48.5943 37.1085 49.282 38.2833 50.311 39.125C51.3126 39.9441 52.5935 40.4143 53.9104 40.6693C56.5375 41.1779 59.6051 40.8861 61.8106 40.4136L61.3916 38.458ZM50.4433 35.3924C50.2258 33.0553 51.6395 30.712 53.5778 28.6332L52.1151 27.2692C50.0956 29.435 48.1506 32.3403 48.4519 35.5778L50.4433 35.3924ZM53.5778 28.6332C57.514 24.4119 63.2854 21.8086 69.5381 20.2705L69.0603 18.3284C62.6197 19.9127 56.4239 22.6483 52.1151 27.2692L53.5778 28.6332ZM69.5381 20.2705C80.3634 17.6075 91.8713 18.6589 101.164 23.9949L102.16 22.2605C92.3495 16.6272 80.2991 15.5637 69.0603 18.3284L69.5381 20.2705ZM101.164 23.9949C102.896 24.9891 105.579 27.0057 108.161 29.2735C110.752 31.5488 113.135 33.9847 114.33 35.7946L115.999 34.693C114.65 32.6495 112.098 30.0692 109.481 27.7708C106.855 25.4648 104.058 23.35 102.16 22.2604L101.164 23.9949Z" fill="#101828" />
</svg>
